<svg xmlns="http://www.w3.org/2000/svg" width="30" height="30" viewBox="0 0 30 30">
  <defs>
    <style>
      .a, .c {
        fill: none;
      }

      .a {
        stroke: #467cd9;
        opacity: 0.5;
      }

      .a, .b, .c {
        stroke-linecap: round;
        stroke-linejoin: round;
      }

      .b {
        fill: #467cd9;
        fill-opacity: 0.5;
      }

      .b, .c {
        stroke: #fff;
      }
    </style>
  </defs>
  <title>progeo-3d-surface</title>
  <g>
    <line class="a" x1="3" y1="25" x2="15" y2="8"/>
    <line class="a" x1="5" y1="26" x2="19" y2="8"/>
    <line class="a" x1="8" y1="27" x2="22" y2="7"/>
    <line class="a" x1="13" y1="27" x2="25" y2="5"/>
    <line class="a" x1="17" y1="27" x2="26" y2="5"/>
    <line class="a" x1="20" y1="27" x2="24" y2="4"/>
    <line class="a" x1="23" y1="26" x2="21" y2="3"/>
    <line class="a" x1="25" y1="25" x2="17" y2="3"/>
    <line class="a" x1="26" y1="25" x2="13" y2="3"/>
    <line class="a" x1="25" y1="25" x2="9" y2="3"/>
    <line class="a" x1="23" y1="24" x2="6" y2="4"/>
    <line class="a" x1="20" y1="23" x2="4" y2="5"/>
    <line class="a" x1="16" y1="22" x2="5" y2="6"/>
    <line class="a" x1="12" y1="22" x2="7" y2="7"/>
    <line class="a" x1="8" y1="23" x2="9" y2="8"/>
    <line class="a" x1="6" y1="24" x2="12" y2="8"/>
  </g>
</svg>
