<svg xmlns="http://www.w3.org/2000/svg" width="30" height="30" viewBox="0 0 30 30">
  <defs>
    <style>
      .a {
        fill: none;
      }

      .a, .c {
        stroke: #fff;
        stroke-linecap: round;
        stroke-linejoin: round;
      }

      .b {
        fill: #467cd9;
      }

      .c {
        fill: #cc0911;
      }
    </style>
  </defs>
  <title>topic-edit</title>
  <g>
    <g>
      <line class="a" x1="10" y1="25" x2="24" y2="25"/>
      <circle class="b" cx="5" cy="25" r="2"/>
    </g>
    <g>
      <polygon class="a" points="8 22 10.2 17 13 19.8 8 22"/>
      <path class="c" d="M25,3h0a2,2,0,0,1,2,2V7a0,0,0,0,1,0,0H23a0,0,0,0,1,0,0V5a2,2,0,0,1,2-2Z" transform="translate(10.9 -16.2) rotate(45)"/>
      <path class="a" d="M19,.5h0a2,2,0,0,1,2,2v19a0,0,0,0,1,0,0H17a0,0,0,0,1,0,0V2.5a2,2,0,0,1,2-2Z" transform="translate(13.3 -10.2) rotate(45)"/>
    </g>
  </g>
</svg>
