<?xml version="1.0" encoding="UTF-8" standalone="no"?>

<svg xmlns="http://www.w3.org/2000/svg" xmlns:xlink= "http://www.w3.org/1999/xlink" width="61" height="51" viewBox="200 120 480 400">

<defs>
	<clipPath id="clipPath_E2">
		<rect x="0" y="0" width="1024" height="672"/>
	</clipPath>
</defs>

<g style="clip-path: url(#clipPath_E2);" stroke-linecap="round">
	<path fill="none" stroke="#2daae4" stroke-opacity="1" stroke-width="12" d="M 314 287 L 314 287 " />
	<path fill="none" stroke="#2daae4" stroke-opacity="1" stroke-width="12" d="M 314 287 L 317 279 " />
	<path fill="none" stroke="#2daae4" stroke-opacity="1" stroke-width="12" d="M 317 279 L 320 272 " />
	<path fill="none" stroke="#2daae4" stroke-opacity="1" stroke-width="12" d="M 320 272 L 324 265 " />
	<path fill="none" stroke="#2daae4" stroke-opacity="1" stroke-width="12" d="M 324 265 L 328 258 " />
	<path fill="none" stroke="#2daae4" stroke-opacity="1" stroke-width="12" d="M 328 258 L 332 251 " />
	<path fill="none" stroke="#2daae4" stroke-opacity="1" stroke-width="12" d="M 332 251 L 337 245 " />
	<path fill="none" stroke="#2daae4" stroke-opacity="1" stroke-width="12" d="M 337 245 L 343 239 " />
	<path fill="none" stroke="#2daae4" stroke-opacity="1" stroke-width="12" d="M 343 239 L 348 234 " />
	<path fill="none" stroke="#2daae4" stroke-opacity="1" stroke-width="12" d="M 348 234 L 354 228 " />
	<path fill="none" stroke="#2daae4" stroke-opacity="1" stroke-width="12" d="M 354 228 L 361 223 " />
	<path fill="none" stroke="#2daae4" stroke-opacity="1" stroke-width="12" d="M 361 223 L 367 219 " />
	<path fill="none" stroke="#2daae4" stroke-opacity="1" stroke-width="12" d="M 367 219 L 374 214 " />
	<path fill="none" stroke="#2daae4" stroke-opacity="1" stroke-width="12" d="M 374 214 L 381 210 " />
	<path fill="none" stroke="#2daae4" stroke-opacity="1" stroke-width="12" d="M 381 210 L 388 207 " />
	<path fill="none" stroke="#2daae4" stroke-opacity="1" stroke-width="12" d="M 388 207 L 395 203 " />
	<path fill="none" stroke="#2daae4" stroke-opacity="1" stroke-width="12" d="M 395 203 L 402 200 " />
	<path fill="none" stroke="#2daae4" stroke-opacity="1" stroke-width="12" d="M 402 200 L 410 197 " />
	<path fill="none" stroke="#2daae4" stroke-opacity="1" stroke-width="12" d="M 410 197 L 417 194 " />
	<path fill="none" stroke="#2daae4" stroke-opacity="1" stroke-width="12" d="M 417 194 L 425 192 " />
	<path fill="none" stroke="#2daae4" stroke-opacity="1" stroke-width="12" d="M 425 192 L 432 190 " />
	<path fill="none" stroke="#2daae4" stroke-opacity="1" stroke-width="12" d="M 432 190 L 440 188 " />
	<path fill="none" stroke="#2daae4" stroke-opacity="1" stroke-width="12" d="M 440 188 L 448 186 " />
	<path fill="none" stroke="#2daae4" stroke-opacity="1" stroke-width="12" d="M 448 186 L 456 185 " />
	<path fill="none" stroke="#2daae4" stroke-opacity="1" stroke-width="12" d="M 456 185 L 464 184 " />
	<path fill="none" stroke="#2daae4" stroke-opacity="1" stroke-width="12" d="M 464 184 L 472 184 " />
	<path fill="none" stroke="#2daae4" stroke-opacity="1" stroke-width="12" d="M 472 184 L 480 183 " />
	<path fill="none" stroke="#2daae4" stroke-opacity="1" stroke-width="12" d="M 480 183 L 488 183 " />
	<path fill="none" stroke="#2daae4" stroke-opacity="1" stroke-width="12" d="M 488 183 L 496 184 " />
	<path fill="none" stroke="#2daae4" stroke-opacity="1" stroke-width="12" d="M 496 184 L 504 184 " />
	<path fill="none" stroke="#2daae4" stroke-opacity="1" stroke-width="12" d="M 504 184 L 512 185 " />
	<path fill="none" stroke="#2daae4" stroke-opacity="1" stroke-width="12" d="M 512 185 L 520 187 " />
	<path fill="none" stroke="#2daae4" stroke-opacity="1" stroke-width="12" d="M 520 187 L 527 188 " />
	<path fill="none" stroke="#2daae4" stroke-opacity="1" stroke-width="12" d="M 527 188 L 535 190 " />
	<path fill="none" stroke="#2daae4" stroke-opacity="1" stroke-width="12" d="M 535 190 L 543 193 " />
	<path fill="none" stroke="#2daae4" stroke-opacity="1" stroke-width="12" d="M 543 193 L 550 196 " />
	<path fill="none" stroke="#2daae4" stroke-opacity="1" stroke-width="12" d="M 550 196 L 557 199 " />
	<path fill="none" stroke="#2daae4" stroke-opacity="1" stroke-width="12" d="M 557 199 L 564 203 " />
	<path fill="none" stroke="#2daae4" stroke-opacity="1" stroke-width="12" d="M 564 203 L 571 207 " />
	<path fill="none" stroke="#2daae4" stroke-opacity="1" stroke-width="12" d="M 571 207 L 578 212 " />
	<path fill="none" stroke="#2daae4" stroke-opacity="1" stroke-width="12" d="M 578 212 L 584 217 " />
	<path fill="none" stroke="#2daae4" stroke-opacity="1" stroke-width="12" d="M 584 217 L 589 222 " />
	<path fill="none" stroke="#2daae4" stroke-opacity="1" stroke-width="12" d="M 589 222 L 595 229 " />
	<path fill="none" stroke="#2daae4" stroke-opacity="1" stroke-width="12" d="M 595 229 L 599 235 " />
	<path fill="none" stroke="#2daae4" stroke-opacity="1" stroke-width="12" d="M 599 235 L 603 242 " />
	<path fill="none" stroke="#2daae4" stroke-opacity="1" stroke-width="12" d="M 603 242 L 606 249 " />
	<path fill="none" stroke="#2daae4" stroke-opacity="1" stroke-width="12" d="M 606 249 L 608 257 " />
	<path fill="none" stroke="#2daae4" stroke-opacity="1" stroke-width="12" d="M 608 257 L 610 265 " />
	<path fill="none" stroke="#2daae4" stroke-opacity="1" stroke-width="12" d="M 610 265 L 611 272 " />
	<path fill="none" stroke="#2daae4" stroke-opacity="1" stroke-width="12" d="M 611 272 L 611 280 " />
	<path fill="none" stroke="#2daae4" stroke-opacity="1" stroke-width="12" d="M 611 280 L 610 288 " />
	<path fill="none" stroke="#2daae4" stroke-opacity="1" stroke-width="12" d="M 610 288 L 608 296 " />
	<path fill="none" stroke="#2daae4" stroke-opacity="1" stroke-width="12" d="M 608 296 L 606 304 " />
	<path fill="none" stroke="#2daae4" stroke-opacity="1" stroke-width="12" d="M 606 304 L 603 311 " />
	<path fill="none" stroke="#2daae4" stroke-opacity="1" stroke-width="12" d="M 603 311 L 599 318 " />
	<path fill="none" stroke="#2daae4" stroke-opacity="1" stroke-width="12" d="M 599 318 L 595 325 " />
	<path fill="none" stroke="#2daae4" stroke-opacity="1" stroke-width="12" d="M 595 325 L 591 331 " />
	<path fill="none" stroke="#2daae4" stroke-opacity="1" stroke-width="12" d="M 591 331 L 586 338 " />
	<path fill="none" stroke="#2daae4" stroke-opacity="1" stroke-width="12" d="M 586 338 L 581 344 " />
	<path fill="none" stroke="#2daae4" stroke-opacity="1" stroke-width="12" d="M 581 344 L 575 349 " />
	<path fill="none" stroke="#2daae4" stroke-opacity="1" stroke-width="12" d="M 575 349 L 569 355 " />
	<path fill="none" stroke="#2daae4" stroke-opacity="1" stroke-width="12" d="M 569 355 L 563 360 " />
	<path fill="none" stroke="#2daae4" stroke-opacity="1" stroke-width="12" d="M 563 360 L 557 364 " />
	<path fill="none" stroke="#2daae4" stroke-opacity="1" stroke-width="12" d="M 557 364 L 550 369 " />
	<path fill="none" stroke="#2daae4" stroke-opacity="1" stroke-width="12" d="M 550 369 L 543 373 " />
	<path fill="none" stroke="#2daae4" stroke-opacity="1" stroke-width="12" d="M 543 373 L 536 377 " />
	<path fill="none" stroke="#2daae4" stroke-opacity="1" stroke-width="12" d="M 536 377 L 529 381 " />
	<path fill="none" stroke="#2daae4" stroke-opacity="1" stroke-width="12" d="M 529 381 L 522 384 " />
	<path fill="none" stroke="#2daae4" stroke-opacity="1" stroke-width="12" d="M 522 384 L 514 387 " />
	<path fill="none" stroke="#2daae4" stroke-opacity="1" stroke-width="12" d="M 514 387 L 507 390 " />
	<path fill="none" stroke="#2daae4" stroke-opacity="1" stroke-width="12" d="M 507 390 L 499 392 " />
	<path fill="none" stroke="#2daae4" stroke-opacity="1" stroke-width="12" d="M 499 392 L 492 394 " />
	<path fill="none" stroke="#2daae4" stroke-opacity="1" stroke-width="12" d="M 492 394 L 484 396 " />
	<path fill="none" stroke="#2daae4" stroke-opacity="1" stroke-width="12" d="M 484 396 L 476 398 " />
	<path fill="none" stroke="#2daae4" stroke-opacity="1" stroke-width="12" d="M 476 398 L 468 399 " />
	<path fill="none" stroke="#2daae4" stroke-opacity="1" stroke-width="12" d="M 468 399 L 460 400 " />
	<path fill="none" stroke="#2daae4" stroke-opacity="1" stroke-width="12" d="M 460 400 L 452 401 " />
	<path fill="none" stroke="#2daae4" stroke-opacity="1" stroke-width="12" d="M 452 401 L 444 401 " />
	<path fill="none" stroke="#2daae4" stroke-opacity="1" stroke-width="12" d="M 444 401 L 436 401 " />
	<path fill="none" stroke="#2daae4" stroke-opacity="1" stroke-width="12" d="M 436 401 L 428 401 " />
	<path fill="none" stroke="#2daae4" stroke-opacity="1" stroke-width="12" d="M 428 401 L 420 400 " />
	<path fill="none" stroke="#2daae4" stroke-opacity="1" stroke-width="12" d="M 420 400 L 412 399 " />
	<path fill="none" stroke="#2daae4" stroke-opacity="1" stroke-width="12" d="M 412 399 L 404 398 " />
	<path fill="none" stroke="#2daae4" stroke-opacity="1" stroke-width="12" d="M 404 398 L 397 396 " />
	<path fill="none" stroke="#2daae4" stroke-opacity="1" stroke-width="12" d="M 397 396 L 389 394 " />
	<path fill="none" stroke="#2daae4" stroke-opacity="1" stroke-width="12" d="M 389 394 L 381 392 " />
	<path fill="none" stroke="#2daae4" stroke-opacity="1" stroke-width="12" d="M 381 392 L 374 389 " />
	<path fill="none" stroke="#2daae4" stroke-opacity="1" stroke-width="12" d="M 374 389 L 366 386 " />
	<path fill="none" stroke="#2daae4" stroke-opacity="1" stroke-width="12" d="M 366 386 L 359 382 " />
	<path fill="none" stroke="#2daae4" stroke-opacity="1" stroke-width="12" d="M 359 382 L 353 378 " />
	<path fill="none" stroke="#2daae4" stroke-opacity="1" stroke-width="12" d="M 353 378 L 346 374 " />
	<path fill="none" stroke="#2daae4" stroke-opacity="1" stroke-width="12" d="M 346 374 L 340 369 " />
	<path fill="none" stroke="#2daae4" stroke-opacity="1" stroke-width="12" d="M 340 369 L 334 363 " />
	<path fill="none" stroke="#2daae4" stroke-opacity="1" stroke-width="12" d="M 334 363 L 329 357 " />
	<path fill="none" stroke="#2daae4" stroke-opacity="1" stroke-width="12" d="M 329 357 L 324 351 " />
	<path fill="none" stroke="#2daae4" stroke-opacity="1" stroke-width="12" d="M 324 351 L 320 344 " />
	<path fill="none" stroke="#2daae4" stroke-opacity="1" stroke-width="12" d="M 320 344 L 317 337 " />
	<path fill="none" stroke="#2daae4" stroke-opacity="1" stroke-width="12" d="M 317 337 L 314 329 " />
	<path fill="none" stroke="#2daae4" stroke-opacity="1" stroke-width="12" d="M 314 329 L 312 322 " />
	<path fill="none" stroke="#2daae4" stroke-opacity="1" stroke-width="12" d="M 312 322 L 311 314 " />
	<path fill="none" stroke="#2daae4" stroke-opacity="1" stroke-width="12" d="M 311 314 L 311 306 " />
	<path fill="none" stroke="#2daae4" stroke-opacity="1" stroke-width="12" d="M 311 306 L 312 298 " />
	<path fill="none" stroke="#2daae4" stroke-opacity="1" stroke-width="12" d="M 312 298 L 313 290 " />
	<path fill="none" stroke="#2daae4" stroke-opacity="1" stroke-width="12" d="M 313 290 L 316 283 " />
	<path fill="none" stroke="#2daae4" stroke-opacity="1" stroke-width="12" d="M 330 254 L 330 254 " />
	<path fill="none" stroke="#2daae4" stroke-opacity="1" stroke-width="12" d="M 330 254 L 335 248 " />
	<path fill="none" stroke="#2daae4" stroke-opacity="1" stroke-width="12" d="M 438 188 L 438 188 " />
	<path fill="none" stroke="#2daae4" stroke-opacity="1" stroke-width="12" d="M 438 188 L 446 187 " />
	<path fill="none" stroke="#2daae4" stroke-opacity="1" stroke-width="12" d="M 577 212 L 577 212 " />
	<path fill="none" stroke="#2daae4" stroke-opacity="1" stroke-width="12" d="M 577 212 L 583 217 " />
	<path fill="none" stroke="#2daae4" stroke-opacity="1" stroke-width="12" d="M 583 217 L 589 222 " />
	<path fill="none" stroke="#2daae4" stroke-opacity="1" stroke-width="12" d="M 609 258 L 609 258 " />
	<path fill="none" stroke="#2daae4" stroke-opacity="1" stroke-width="12" d="M 609 258 L 610 265 " />
	<path fill="none" stroke="#2daae4" stroke-opacity="1" stroke-width="12" d="M 318 275 L 318 275 " />
	<path fill="none" stroke="#2daae4" stroke-opacity="1" stroke-width="12" d="M 318 275 L 322 268 " />
	<path fill="none" stroke="#2daae4" stroke-opacity="1" stroke-width="12" d="M 322 268 L 326 261 " />
	<path fill="none" stroke="#2daae4" stroke-opacity="1" stroke-width="12" d="M 326 261 L 330 255 " />
	<path fill="none" stroke="#2daae4" stroke-opacity="1" stroke-width="12" d="M 518 186 L 518 186 " />
	<path fill="none" stroke="#2daae4" stroke-opacity="1" stroke-width="12" d="M 518 186 L 526 188 " />
	<path fill="none" stroke="#2daae4" stroke-opacity="1" stroke-width="12" d="M 609 257 L 609 257 " />
	<path fill="none" stroke="#2daae4" stroke-opacity="1" stroke-width="12" d="M 609 257 L 610 265 " />
	<path fill="none" stroke="#2daae4" stroke-opacity="1" stroke-width="12" d="M 312 315 L 312 315 " />
	<path fill="none" stroke="#2daae4" stroke-opacity="1" stroke-width="12" d="M 312 315 L 311 307 " />
	<path fill="none" stroke="#2daae4" stroke-opacity="1" stroke-width="12" d="M 316 336 L 316 336 " />
	<path fill="none" stroke="#2daae4" stroke-opacity="1" stroke-width="12" d="M 316 336 L 314 328 " />
	<path fill="none" stroke="#2daae4" stroke-opacity="1" stroke-width="12" d="M 383 392 L 383 392 " />
	<path fill="none" stroke="#2daae4" stroke-opacity="1" stroke-width="12" d="M 383 392 L 375 390 " />
	<path fill="none" stroke="#2daae4" stroke-opacity="1" stroke-width="12" d="M 375 390 L 368 387 " />
	<path fill="none" stroke="#2daae4" stroke-opacity="1" stroke-width="12" d="M 610 284 L 610 284 " />
	<path fill="none" stroke="#2daae4" stroke-opacity="1" stroke-width="12" d="M 610 284 L 609 292 " />
	<path fill="none" stroke="#2daae4" stroke-opacity="1" stroke-width="12" d="M 505 390 L 505 390 " />
	<path fill="none" stroke="#2daae4" stroke-opacity="1" stroke-width="12" d="M 505 390 L 498 392 " />
	<path fill="none" stroke="#2daae4" stroke-opacity="1" stroke-width="12" d="M 592 329 L 592 329 " />
	<path fill="none" stroke="#2daae4" stroke-opacity="1" stroke-width="12" d="M 592 329 L 588 336 " />
	<path fill="none" stroke="#2daae4" stroke-opacity="1" stroke-width="12" d="M 588 336 L 582 342 " />
	<path fill="none" stroke="#2daae4" stroke-opacity="1" stroke-width="12" d="M 582 342 L 577 348 " />
	<path fill="none" stroke="#2daae4" stroke-opacity="1" stroke-width="12" d="M 353 379 L 353 379 " />
	<path fill="none" stroke="#2daae4" stroke-opacity="1" stroke-width="12" d="M 353 379 L 347 374 " />
	<path fill="none" stroke="#2daae4" stroke-opacity="1" stroke-width="12" d="M 347 374 L 341 369 " />
	<path fill="none" stroke="#2daae4" stroke-opacity="1" stroke-width="12" d="M 341 369 L 335 364 " />
	<circle cx="315" cy="332" r="24" stroke="none" fill="#141e28" fill-opacity="1" />
	<circle cx="315" cy="332" r="24" stroke="#c1ccd1" stroke-opacity="1" stroke-width="1" fill="none"  />
	<circle cx="439" cy="401" r="24" stroke="none" fill="#141e28" fill-opacity="1" />
	<circle cx="439" cy="401" r="24" stroke="#c1ccd1" stroke-opacity="1" stroke-width="1" fill="none"  />
	<circle cx="589" cy="334" r="24" stroke="none" fill="#141e28" fill-opacity="1" />
	<circle cx="589" cy="334" r="24" stroke="#c1ccd1" stroke-opacity="1" stroke-width="1" fill="none"  />
	<circle cx="561" cy="201" r="24" stroke="none" fill="#141e28" fill-opacity="1" />
	<circle cx="561" cy="201" r="24" stroke="#c1ccd1" stroke-opacity="1" stroke-width="1" fill="none"  />
	<circle cx="383" cy="209" r="24" stroke="none" fill="#141e28" fill-opacity="1" />
	<circle cx="383" cy="209" r="24" stroke="#c1ccd1" stroke-opacity="1" stroke-width="1" fill="none"  />
	<circle cx="315" cy="332" r="18" stroke="none" fill="#c1ccd1" fill-opacity="1" />
	<circle cx="315" cy="332" r="18" stroke="#c1ccd1" stroke-opacity="1" stroke-width="0.000001" fill="none"  />
	<circle cx="439" cy="401" r="18" stroke="none" fill="#c1ccd1" fill-opacity="1" />
	<circle cx="439" cy="401" r="18" stroke="#c1ccd1" stroke-opacity="1" stroke-width="0.000001" fill="none"  />
	<circle cx="589" cy="334" r="18" stroke="none" fill="#c1ccd1" fill-opacity="1" />
	<circle cx="589" cy="334" r="18" stroke="#c1ccd1" stroke-opacity="1" stroke-width="0.000001" fill="none"  />
	<circle cx="561" cy="201" r="18" stroke="none" fill="#c1ccd1" fill-opacity="1" />
	<circle cx="561" cy="201" r="18" stroke="#c1ccd1" stroke-opacity="1" stroke-width="0.000001" fill="none"  />
	<circle cx="383" cy="209" r="18" stroke="none" fill="#c1ccd1" fill-opacity="1" />
	<circle cx="383" cy="209" r="18" stroke="#c1ccd1" stroke-opacity="1" stroke-width="0.000001" fill="none"  />
</g>
</svg>
