<?xml version="1.0" encoding="UTF-8" standalone="no"?>

<svg xmlns="http://www.w3.org/2000/svg" xmlns:xlink= "http://www.w3.org/1999/xlink" width="61" height="51" viewBox="265 200 300 250">

<defs>
	<clipPath id="clipPath_E2">
		<rect x="0" y="0" width="1024" height="672" />
	</clipPath>
</defs>

<g style="clip-path: url(#clipPath_E2);" stroke-linecap="round">
	<path fill="none" stroke="#2daae4" stroke-opacity="1" stroke-width="7" d="M 299 278 L 299 278 " />
	<path fill="none" stroke="#2daae4" stroke-opacity="1" stroke-width="7" d="M 299 278 L 301 271 " />
	<path fill="none" stroke="#2daae4" stroke-opacity="1" stroke-width="7" d="M 301 271 L 304 263 " />
	<path fill="none" stroke="#2daae4" stroke-opacity="1" stroke-width="7" d="M 304 263 L 308 257 " />
	<path fill="none" stroke="#2daae4" stroke-opacity="1" stroke-width="7" d="M 308 257 L 313 251 " />
	<path fill="none" stroke="#2daae4" stroke-opacity="1" stroke-width="7" d="M 313 251 L 319 246 " />
	<path fill="none" stroke="#2daae4" stroke-opacity="1" stroke-width="7" d="M 319 246 L 326 242 " />
	<path fill="none" stroke="#2daae4" stroke-opacity="1" stroke-width="7" d="M 326 242 L 333 239 " />
	<path fill="none" stroke="#2daae4" stroke-opacity="1" stroke-width="7" d="M 333 239 L 341 236 " />
	<path fill="none" stroke="#2daae4" stroke-opacity="1" stroke-width="7" d="M 341 236 L 348 234 " />
	<path fill="none" stroke="#2daae4" stroke-opacity="1" stroke-width="7" d="M 348 234 L 356 232 " />
	<path fill="none" stroke="#2daae4" stroke-opacity="1" stroke-width="7" d="M 356 232 L 364 232 " />
	<path fill="none" stroke="#2daae4" stroke-opacity="1" stroke-width="7" d="M 364 232 L 372 231 " />
	<path fill="none" stroke="#2daae4" stroke-opacity="1" stroke-width="7" d="M 372 231 L 380 231 " />
	<path fill="none" stroke="#2daae4" stroke-opacity="1" stroke-width="7" d="M 380 231 L 388 231 " />
	<path fill="none" stroke="#2daae4" stroke-opacity="1" stroke-width="7" d="M 388 231 L 396 232 " />
	<path fill="none" stroke="#2daae4" stroke-opacity="1" stroke-width="7" d="M 396 232 L 404 233 " />
	<path fill="none" stroke="#2daae4" stroke-opacity="1" stroke-width="7" d="M 404 233 L 412 235 " />
	<path fill="none" stroke="#2daae4" stroke-opacity="1" stroke-width="7" d="M 412 235 L 419 237 " />
	<path fill="none" stroke="#2daae4" stroke-opacity="1" stroke-width="7" d="M 419 237 L 427 240 " />
	<path fill="none" stroke="#2daae4" stroke-opacity="1" stroke-width="7" d="M 427 240 L 434 242 " />
	<path fill="none" stroke="#2daae4" stroke-opacity="1" stroke-width="7" d="M 434 242 L 442 246 " />
	<path fill="none" stroke="#2daae4" stroke-opacity="1" stroke-width="7" d="M 442 246 L 449 249 " />
	<path fill="none" stroke="#2daae4" stroke-opacity="1" stroke-width="7" d="M 449 249 L 456 254 " />
	<path fill="none" stroke="#2daae4" stroke-opacity="1" stroke-width="7" d="M 456 254 L 462 258 " />
	<path fill="none" stroke="#2daae4" stroke-opacity="1" stroke-width="7" d="M 462 258 L 468 263 " />
	<path fill="none" stroke="#2daae4" stroke-opacity="1" stroke-width="7" d="M 468 263 L 474 269 " />
	<path fill="none" stroke="#2daae4" stroke-opacity="1" stroke-width="7" d="M 474 269 L 478 275 " />
	<path fill="none" stroke="#2daae4" stroke-opacity="1" stroke-width="7" d="M 478 275 L 482 282 " />
	<path fill="none" stroke="#2daae4" stroke-opacity="1" stroke-width="7" d="M 482 282 L 483 290 " />
	<path fill="none" stroke="#2daae4" stroke-opacity="1" stroke-width="7" d="M 483 290 L 482 297 " />
	<path fill="none" stroke="#2daae4" stroke-opacity="1" stroke-width="7" d="M 482 297 L 480 304 " />
	<path fill="none" stroke="#2daae4" stroke-opacity="1" stroke-width="7" d="M 480 304 L 475 310 " />
	<path fill="none" stroke="#2daae4" stroke-opacity="1" stroke-width="7" d="M 475 310 L 470 316 " />
	<path fill="none" stroke="#2daae4" stroke-opacity="1" stroke-width="7" d="M 470 316 L 464 322 " />
	<path fill="none" stroke="#2daae4" stroke-opacity="1" stroke-width="7" d="M 464 322 L 458 327 " />
	<path fill="none" stroke="#2daae4" stroke-opacity="1" stroke-width="7" d="M 458 327 L 452 331 " />
	<path fill="none" stroke="#2daae4" stroke-opacity="1" stroke-width="7" d="M 452 331 L 445 336 " />
	<path fill="none" stroke="#2daae4" stroke-opacity="1" stroke-width="7" d="M 445 336 L 438 340 " />
	<path fill="none" stroke="#2daae4" stroke-opacity="1" stroke-width="7" d="M 438 340 L 431 343 " />
	<path fill="none" stroke="#2daae4" stroke-opacity="1" stroke-width="7" d="M 431 343 L 424 346 " />
	<path fill="none" stroke="#2daae4" stroke-opacity="1" stroke-width="7" d="M 424 346 L 416 349 " />
	<path fill="none" stroke="#2daae4" stroke-opacity="1" stroke-width="7" d="M 416 349 L 408 351 " />
	<path fill="none" stroke="#2daae4" stroke-opacity="1" stroke-width="7" d="M 408 351 L 401 353 " />
	<path fill="none" stroke="#2daae4" stroke-opacity="1" stroke-width="7" d="M 401 353 L 393 353 " />
	<path fill="none" stroke="#2daae4" stroke-opacity="1" stroke-width="7" d="M 393 353 L 385 353 " />
	<path fill="none" stroke="#2daae4" stroke-opacity="1" stroke-width="7" d="M 385 353 L 377 352 " />
	<path fill="none" stroke="#2daae4" stroke-opacity="1" stroke-width="7" d="M 377 352 L 369 351 " />
	<path fill="none" stroke="#2daae4" stroke-opacity="1" stroke-width="7" d="M 369 351 L 361 349 " />
	<path fill="none" stroke="#2daae4" stroke-opacity="1" stroke-width="7" d="M 361 349 L 354 346 " />
	<path fill="none" stroke="#2daae4" stroke-opacity="1" stroke-width="7" d="M 354 346 L 347 343 " />
	<path fill="none" stroke="#2daae4" stroke-opacity="1" stroke-width="7" d="M 347 343 L 340 339 " />
	<path fill="none" stroke="#2daae4" stroke-opacity="1" stroke-width="7" d="M 340 339 L 333 335 " />
	<path fill="none" stroke="#2daae4" stroke-opacity="1" stroke-width="7" d="M 333 335 L 326 330 " />
	<path fill="none" stroke="#2daae4" stroke-opacity="1" stroke-width="7" d="M 326 330 L 320 325 " />
	<path fill="none" stroke="#2daae4" stroke-opacity="1" stroke-width="7" d="M 320 325 L 315 320 " />
	<path fill="none" stroke="#2daae4" stroke-opacity="1" stroke-width="7" d="M 315 320 L 310 313 " />
	<path fill="none" stroke="#2daae4" stroke-opacity="1" stroke-width="7" d="M 310 313 L 306 307 " />
	<path fill="none" stroke="#2daae4" stroke-opacity="1" stroke-width="7" d="M 306 307 L 302 300 " />
	<path fill="none" stroke="#2daae4" stroke-opacity="1" stroke-width="7" d="M 302 300 L 300 292 " />
	<path fill="none" stroke="#2daae4" stroke-opacity="1" stroke-width="7" d="M 300 292 L 299 284 " />
	<path fill="none" stroke="#2daae4" stroke-opacity="1" stroke-width="7" d="M 299 284 L 299 277 " />
	<path fill="none" stroke="#2daae4" stroke-opacity="1" stroke-width="7" d="M 523 330 L 523 330 " />
	<path fill="none" stroke="#2daae4" stroke-opacity="1" stroke-width="7" d="M 523 330 L 519 337 " />
	<path fill="none" stroke="#2daae4" stroke-opacity="1" stroke-width="7" d="M 519 337 L 514 343 " />
	<path fill="none" stroke="#2daae4" stroke-opacity="1" stroke-width="7" d="M 514 343 L 509 349 " />
	<path fill="none" stroke="#2daae4" stroke-opacity="1" stroke-width="7" d="M 509 349 L 504 355 " />
	<path fill="none" stroke="#2daae4" stroke-opacity="1" stroke-width="7" d="M 504 355 L 497 360 " />
	<path fill="none" stroke="#2daae4" stroke-opacity="1" stroke-width="7" d="M 497 360 L 491 365 " />
	<path fill="none" stroke="#2daae4" stroke-opacity="1" stroke-width="7" d="M 491 365 L 484 369 " />
	<path fill="none" stroke="#2daae4" stroke-opacity="1" stroke-width="7" d="M 484 369 L 477 373 " />
	<path fill="none" stroke="#2daae4" stroke-opacity="1" stroke-width="7" d="M 477 373 L 470 376 " />
	<path fill="none" stroke="#2daae4" stroke-opacity="1" stroke-width="7" d="M 470 376 L 463 379 " />
	<path fill="none" stroke="#2daae4" stroke-opacity="1" stroke-width="7" d="M 463 379 L 455 382 " />
	<path fill="none" stroke="#2daae4" stroke-opacity="1" stroke-width="7" d="M 455 382 L 447 384 " />
	<path fill="none" stroke="#2daae4" stroke-opacity="1" stroke-width="7" d="M 447 384 L 440 387 " />
	<path fill="none" stroke="#2daae4" stroke-opacity="1" stroke-width="7" d="M 440 387 L 432 389 " />
	<path fill="none" stroke="#2daae4" stroke-opacity="1" stroke-width="7" d="M 432 389 L 425 392 " />
	<path fill="none" stroke="#2daae4" stroke-opacity="1" stroke-width="7" d="M 425 392 L 417 394 " />
	<path fill="none" stroke="#2daae4" stroke-opacity="1" stroke-width="7" d="M 417 394 L 410 397 " />
	<path fill="none" stroke="#2daae4" stroke-opacity="1" stroke-width="7" d="M 410 397 L 402 401 " />
	<path fill="none" stroke="#2daae4" stroke-opacity="1" stroke-width="7" d="M 402 401 L 395 404 " />
	<path fill="none" stroke="#2daae4" stroke-opacity="1" stroke-width="7" d="M 395 404 L 388 408 " />
	<path fill="none" stroke="#2daae4" stroke-opacity="1" stroke-width="7" d="M 388 408 L 381 411 " />
	<path fill="none" stroke="#2daae4" stroke-opacity="1" stroke-width="7" d="M 381 411 L 374 415 " />
	<path fill="none" stroke="#2daae4" stroke-opacity="1" stroke-width="7" d="M 374 415 L 367 419 " />
	<path fill="none" stroke="#2daae4" stroke-opacity="1" stroke-width="7" d="M 367 419 L 360 424 " />
	<path fill="none" stroke="#2daae4" stroke-opacity="1" stroke-width="7" d="M 360 424 L 354 428 " />
	<path fill="none" stroke="#2daae4" stroke-opacity="1" stroke-width="7" d="M 354 428 L 347 432 " />
	<path fill="none" stroke="#2daae4" stroke-opacity="1" stroke-width="7" d="M 347 432 L 340 437 " />
	<path fill="none" stroke="#2daae4" stroke-opacity="1" stroke-width="7" d="M 340 437 L 334 441 " />
	<path fill="none" stroke="#2daae4" stroke-opacity="1" stroke-width="7" d="M 334 441 L 327 446 " />
	<path fill="none" stroke="#2daae4" stroke-opacity="1" stroke-width="7" d="M 327 446 L 320 450 " />
	<path fill="none" stroke="#2daae4" stroke-opacity="1" stroke-width="7" d="M 320 450 L 314 455 " />
	<path fill="none" stroke="#2daae4" stroke-opacity="1" stroke-width="7" d="M 314 455 L 307 459 " />
	<path fill="none" stroke="#2daae4" stroke-opacity="1" stroke-width="7" d="M 307 459 L 301 464 " />
	<path fill="none" stroke="#2daae4" stroke-opacity="1" stroke-width="7" d="M 301 464 L 294 468 " />
	<path fill="none" stroke="#2daae4" stroke-opacity="1" stroke-width="7" d="M 294 468 L 287 473 " />
	<path fill="none" stroke="#2daae4" stroke-opacity="1" stroke-width="7" d="M 287 473 L 281 477 " />
	<path fill="none" stroke="#2daae4" stroke-opacity="1" stroke-width="7" d="M 281 477 L 274 482 " />
	<path fill="none" stroke="#2daae4" stroke-opacity="1" stroke-width="7" d="M 274 482 L 268 487 " />
	<path fill="none" stroke="#2daae4" stroke-opacity="1" stroke-width="7" d="M 268 487 L 261 491 " />
	<path fill="none" stroke="#2daae4" stroke-opacity="1" stroke-width="7" d="M 261 491 L 255 496 " />
	<path fill="none" stroke="#2daae4" stroke-opacity="1" stroke-width="7" d="M 255 496 L 248 500 " />
	<path fill="none" stroke="#2daae4" stroke-opacity="1" stroke-width="7" d="M 248 500 L 242 505 " />
	<path fill="none" stroke="#2daae4" stroke-opacity="1" stroke-width="7" d="M 242 505 L 235 510 " />
	<path fill="none" stroke="#2daae4" stroke-opacity="1" stroke-width="7" d="M 235 510 L 229 514 " />
	<path fill="none" stroke="#2daae4" stroke-opacity="1" stroke-width="7" d="M 229 514 L 222 519 " />
	<path fill="none" stroke="#2daae4" stroke-opacity="1" stroke-width="7" d="M 222 519 L 216 524 " />
	<path fill="none" stroke="#2daae4" stroke-opacity="1" stroke-width="7" d="M 216 524 L 209 528 " />
	<path fill="none" stroke="#2daae4" stroke-opacity="1" stroke-width="7" d="M 209 528 L 203 533 " />
	<path fill="none" stroke="#2daae4" stroke-opacity="1" stroke-width="7" d="M 203 533 L 196 538 " />
	<path fill="none" stroke="#2daae4" stroke-opacity="1" stroke-width="7" d="M 196 538 L 190 542 " />
	<path fill="none" stroke="#2daae4" stroke-opacity="1" stroke-width="7" d="M 190 542 L 183 547 " />
	<path fill="none" stroke="#2daae4" stroke-opacity="1" stroke-width="7" d="M 183 547 L 177 552 " />
	<path fill="none" stroke="#2daae4" stroke-opacity="1" stroke-width="7" d="M 177 552 L 170 556 " />
	<path fill="none" stroke="#2daae4" stroke-opacity="1" stroke-width="7" d="M 170 556 L 164 561 " />
	<path fill="none" stroke="#2daae4" stroke-opacity="1" stroke-width="7" d="M 164 561 L 157 566 " />
	<path fill="none" stroke="#2daae4" stroke-opacity="1" stroke-width="7" d="M 157 566 L 151 570 " />
	<path fill="none" stroke="#2daae4" stroke-opacity="1" stroke-width="7" d="M 151 570 L 144 575 " />
	<path fill="none" stroke="#2daae4" stroke-opacity="1" stroke-width="7" d="M 144 575 L 138 580 " />
	<path fill="none" stroke="#2daae4" stroke-opacity="1" stroke-width="7" d="M 138 580 L 131 584 " />
	<path fill="none" stroke="#2daae4" stroke-opacity="1" stroke-width="7" d="M 131 584 L 125 589 " />
	<path fill="none" stroke="#2daae4" stroke-opacity="1" stroke-width="7" d="M 125 589 L 118 594 " />
	<path fill="none" stroke="#2daae4" stroke-opacity="1" stroke-width="7" d="M 118 594 L 112 598 " />
	<path fill="none" stroke="#2daae4" stroke-opacity="1" stroke-width="7" d="M 112 598 L 105 603 " />
	<path fill="none" stroke="#2daae4" stroke-opacity="1" stroke-width="7" d="M 105 603 L 99 608 " />
	<path fill="none" stroke="#2daae4" stroke-opacity="1" stroke-width="7" d="M 99 608 L 92 612 " />
	<path fill="none" stroke="#2daae4" stroke-opacity="1" stroke-width="7" d="M 92 612 L 86 617 " />
	<path fill="none" stroke="#2daae4" stroke-opacity="1" stroke-width="7" d="M 86 617 L 79 622 " />
	<path fill="none" stroke="#2daae4" stroke-opacity="1" stroke-width="7" d="M 79 622 L 73 627 " />
	<path fill="none" stroke="#2daae4" stroke-opacity="1" stroke-width="7" d="M 73 627 L 66 631 " />
	<path fill="none" stroke="#2daae4" stroke-opacity="1" stroke-width="7" d="M 66 631 L 60 636 " />
	<path fill="none" stroke="#2daae4" stroke-opacity="1" stroke-width="7" d="M 60 636 L 53 641 " />
	<path fill="none" stroke="#2daae4" stroke-opacity="1" stroke-width="7" d="M 53 641 L 47 645 " />
	<path fill="none" stroke="#2daae4" stroke-opacity="1" stroke-width="7" d="M 47 645 L 40 650 " />
	<path fill="none" stroke="#2daae4" stroke-opacity="1" stroke-width="7" d="M 40 650 L 34 655 " />
	<path fill="none" stroke="#2daae4" stroke-opacity="1" stroke-width="7" d="M 34 655 L 27 659 " />
	<path fill="none" stroke="#2daae4" stroke-opacity="1" stroke-width="7" d="M 27 659 L 21 664 " />
	<path fill="none" stroke="#2daae4" stroke-opacity="1" stroke-width="7" d="M 21 664 L 14 669 " />
	<path fill="none" stroke="#2daae4" stroke-opacity="1" stroke-width="7" d="M 14 669 L 8 673 " />
	<path fill="none" stroke="#2daae4" stroke-opacity="1" stroke-width="7" d="M 8 673 L 1 678 " />
	<path fill="none" stroke="#2daae4" stroke-opacity="1" stroke-width="7" d="M 1 678 L -5 683 " />
	<path fill="none" stroke="#2daae4" stroke-opacity="1" stroke-width="7" d="M -5 683 L -12 687 " />
	<path fill="none" stroke="#2daae4" stroke-opacity="1" stroke-width="7" d="M 523 330 L 526 323 " />
	<path fill="none" stroke="#2daae4" stroke-opacity="1" stroke-width="7" d="M 526 323 L 530 315 " />
	<path fill="none" stroke="#2daae4" stroke-opacity="1" stroke-width="7" d="M 530 315 L 534 308 " />
	<path fill="none" stroke="#2daae4" stroke-opacity="1" stroke-width="7" d="M 534 308 L 538 302 " />
	<path fill="none" stroke="#2daae4" stroke-opacity="1" stroke-width="7" d="M 538 302 L 543 295 " />
	<path fill="none" stroke="#2daae4" stroke-opacity="1" stroke-width="7" d="M 543 295 L 548 289 " />
	<path fill="none" stroke="#2daae4" stroke-opacity="1" stroke-width="7" d="M 548 289 L 554 284 " />
	<path fill="none" stroke="#2daae4" stroke-opacity="1" stroke-width="7" d="M 554 284 L 560 278 " />
	<path fill="none" stroke="#2daae4" stroke-opacity="1" stroke-width="7" d="M 560 278 L 566 273 " />
	<path fill="none" stroke="#2daae4" stroke-opacity="1" stroke-width="7" d="M 566 273 L 572 268 " />
	<path fill="none" stroke="#2daae4" stroke-opacity="1" stroke-width="7" d="M 572 268 L 578 263 " />
	<path fill="none" stroke="#2daae4" stroke-opacity="1" stroke-width="7" d="M 578 263 L 584 258 " />
	<path fill="none" stroke="#2daae4" stroke-opacity="1" stroke-width="7" d="M 584 258 L 590 253 " />
	<path fill="none" stroke="#2daae4" stroke-opacity="1" stroke-width="7" d="M 590 253 L 597 248 " />
	<path fill="none" stroke="#2daae4" stroke-opacity="1" stroke-width="7" d="M 597 248 L 603 243 " />
	<path fill="none" stroke="#2daae4" stroke-opacity="1" stroke-width="7" d="M 603 243 L 609 238 " />
	<path fill="none" stroke="#2daae4" stroke-opacity="1" stroke-width="7" d="M 609 238 L 616 233 " />
	<path fill="none" stroke="#2daae4" stroke-opacity="1" stroke-width="7" d="M 616 233 L 622 229 " />
	<path fill="none" stroke="#2daae4" stroke-opacity="1" stroke-width="7" d="M 622 229 L 629 224 " />
	<path fill="none" stroke="#2daae4" stroke-opacity="1" stroke-width="7" d="M 629 224 L 635 219 " />
	<path fill="none" stroke="#2daae4" stroke-opacity="1" stroke-width="7" d="M 635 219 L 641 214 " />
	<path fill="none" stroke="#2daae4" stroke-opacity="1" stroke-width="7" d="M 641 214 L 648 210 " />
	<path fill="none" stroke="#2daae4" stroke-opacity="1" stroke-width="7" d="M 648 210 L 654 205 " />
	<path fill="none" stroke="#2daae4" stroke-opacity="1" stroke-width="7" d="M 654 205 L 661 200 " />
	<path fill="none" stroke="#2daae4" stroke-opacity="1" stroke-width="7" d="M 661 200 L 667 195 " />
	<path fill="none" stroke="#2daae4" stroke-opacity="1" stroke-width="7" d="M 667 195 L 674 191 " />
	<path fill="none" stroke="#2daae4" stroke-opacity="1" stroke-width="7" d="M 674 191 L 680 186 " />
	<path fill="none" stroke="#2daae4" stroke-opacity="1" stroke-width="7" d="M 680 186 L 687 181 " />
	<path fill="none" stroke="#2daae4" stroke-opacity="1" stroke-width="7" d="M 687 181 L 693 176 " />
	<path fill="none" stroke="#2daae4" stroke-opacity="1" stroke-width="7" d="M 693 176 L 700 172 " />
	<path fill="none" stroke="#2daae4" stroke-opacity="1" stroke-width="7" d="M 700 172 L 706 167 " />
	<path fill="none" stroke="#2daae4" stroke-opacity="1" stroke-width="7" d="M 706 167 L 712 162 " />
	<path fill="none" stroke="#2daae4" stroke-opacity="1" stroke-width="7" d="M 712 162 L 719 158 " />
	<path fill="none" stroke="#2daae4" stroke-opacity="1" stroke-width="7" d="M 719 158 L 725 153 " />
	<path fill="none" stroke="#2daae4" stroke-opacity="1" stroke-width="7" d="M 725 153 L 732 148 " />
	<path fill="none" stroke="#2daae4" stroke-opacity="1" stroke-width="7" d="M 732 148 L 738 144 " />
	<path fill="none" stroke="#2daae4" stroke-opacity="1" stroke-width="7" d="M 738 144 L 745 139 " />
	<path fill="none" stroke="#2daae4" stroke-opacity="1" stroke-width="7" d="M 745 139 L 751 134 " />
	<path fill="none" stroke="#2daae4" stroke-opacity="1" stroke-width="7" d="M 751 134 L 758 129 " />
	<path fill="none" stroke="#2daae4" stroke-opacity="1" stroke-width="7" d="M 758 129 L 764 125 " />
	<path fill="none" stroke="#2daae4" stroke-opacity="1" stroke-width="7" d="M 764 125 L 771 120 " />
	<path fill="none" stroke="#2daae4" stroke-opacity="1" stroke-width="7" d="M 771 120 L 777 115 " />
	<path fill="none" stroke="#2daae4" stroke-opacity="1" stroke-width="7" d="M 777 115 L 784 111 " />
	<path fill="none" stroke="#2daae4" stroke-opacity="1" stroke-width="7" d="M 784 111 L 790 106 " />
	<path fill="none" stroke="#2daae4" stroke-opacity="1" stroke-width="7" d="M 790 106 L 797 101 " />
	<path fill="none" stroke="#2daae4" stroke-opacity="1" stroke-width="7" d="M 797 101 L 803 96 " />
	<path fill="none" stroke="#2daae4" stroke-opacity="1" stroke-width="7" d="M 803 96 L 810 92 " />
	<path fill="none" stroke="#2daae4" stroke-opacity="1" stroke-width="7" d="M 810 92 L 816 87 " />
	<path fill="none" stroke="#2daae4" stroke-opacity="1" stroke-width="7" d="M 816 87 L 822 82 " />
	<path fill="none" stroke="#2daae4" stroke-opacity="1" stroke-width="7" d="M 822 82 L 829 78 " />
	<path fill="none" stroke="#2daae4" stroke-opacity="1" stroke-width="7" d="M 829 78 L 835 73 " />
	<path fill="none" stroke="#2daae4" stroke-opacity="1" stroke-width="7" d="M 835 73 L 842 68 " />
	<path fill="none" stroke="#2daae4" stroke-opacity="1" stroke-width="7" d="M 842 68 L 848 64 " />
	<path fill="none" stroke="#2daae4" stroke-opacity="1" stroke-width="7" d="M 848 64 L 855 59 " />
	<path fill="none" stroke="#2daae4" stroke-opacity="1" stroke-width="7" d="M 855 59 L 861 54 " />
	<path fill="none" stroke="#2daae4" stroke-opacity="1" stroke-width="7" d="M 861 54 L 868 49 " />
	<path fill="none" stroke="#2daae4" stroke-opacity="1" stroke-width="7" d="M 868 49 L 874 45 " />
	<path fill="none" stroke="#2daae4" stroke-opacity="1" stroke-width="7" d="M 874 45 L 881 40 " />
	<path fill="none" stroke="#2daae4" stroke-opacity="1" stroke-width="7" d="M 881 40 L 887 35 " />
	<path fill="none" stroke="#2daae4" stroke-opacity="1" stroke-width="7" d="M 887 35 L 894 31 " />
	<path fill="none" stroke="#2daae4" stroke-opacity="1" stroke-width="7" d="M 894 31 L 900 26 " />
	<path fill="none" stroke="#2daae4" stroke-opacity="1" stroke-width="7" d="M 900 26 L 907 21 " />
	<path fill="none" stroke="#2daae4" stroke-opacity="1" stroke-width="7" d="M 907 21 L 913 17 " />
	<path fill="none" stroke="#2daae4" stroke-opacity="1" stroke-width="7" d="M 913 17 L 920 12 " />
	<path fill="none" stroke="#2daae4" stroke-opacity="1" stroke-width="7" d="M 920 12 L 926 7 " />
	<path fill="none" stroke="#2daae4" stroke-opacity="1" stroke-width="7" d="M 926 7 L 933 3 " />
	<path fill="none" stroke="#2daae4" stroke-opacity="1" stroke-width="7" d="M 933 3 L 939 -2 " />
	<path fill="none" stroke="#2daae4" stroke-opacity="1" stroke-width="7" d="M 939 -2 L 946 -7 " />
	<path fill="none" stroke="#2daae4" stroke-opacity="1" stroke-width="7" d="M 946 -7 L 952 -12 " />
	<path fill="none" stroke="#2daae4" stroke-opacity="1" stroke-width="7" d="M 671 192 L 671 192 " />
	<path fill="none" stroke="#2daae4" stroke-opacity="1" stroke-width="7" d="M 671 192 L 678 188 " />
	<path fill="none" stroke="#2daae4" stroke-opacity="1" stroke-width="7" d="M 933 2 L 933 2 " />
	<path fill="none" stroke="#2daae4" stroke-opacity="1" stroke-width="7" d="M 933 2 L 939 -2 " />
	<path fill="none" stroke="#2daae4" stroke-opacity="1" stroke-width="7" d="M 300 272 L 300 272 " />
	<path fill="none" stroke="#2daae4" stroke-opacity="1" stroke-width="7" d="M 300 272 L 303 265 " />
	<path fill="none" stroke="#2daae4" stroke-opacity="1" stroke-width="7" d="M 324 244 L 324 244 " />
	<path fill="none" stroke="#2daae4" stroke-opacity="1" stroke-width="7" d="M 324 244 L 331 240 " />
	<path fill="none" stroke="#2daae4" stroke-opacity="1" stroke-width="7" d="M 405 234 L 405 234 " />
	<path fill="none" stroke="#2daae4" stroke-opacity="1" stroke-width="7" d="M 405 234 L 413 235 " />
	<path fill="none" stroke="#2daae4" stroke-opacity="1" stroke-width="7" d="M 659 202 L 659 202 " />
	<path fill="none" stroke="#2daae4" stroke-opacity="1" stroke-width="7" d="M 659 202 L 665 197 " />
	<path fill="none" stroke="#2daae4" stroke-opacity="1" stroke-width="7" d="M 299 289 L 299 289 " />
	<path fill="none" stroke="#2daae4" stroke-opacity="1" stroke-width="7" d="M 299 289 L 299 281 " />
	<path fill="none" stroke="#2daae4" stroke-opacity="1" stroke-width="7" d="M 522 331 L 522 331 " />
	<path fill="none" stroke="#2daae4" stroke-opacity="1" stroke-width="7" d="M 522 331 L 518 338 " />
	<path fill="none" stroke="#2daae4" stroke-opacity="1" stroke-width="7" d="M 701 170 L 701 170 " />
	<path fill="none" stroke="#2daae4" stroke-opacity="1" stroke-width="7" d="M 701 170 L 708 166 " />
	<path fill="none" stroke="#2daae4" stroke-opacity="1" stroke-width="7" d="M 736 145 L 736 145 " />
	<path fill="none" stroke="#2daae4" stroke-opacity="1" stroke-width="7" d="M 736 145 L 743 140 " />
	<path fill="none" stroke="#2daae4" stroke-opacity="1" stroke-width="7" d="M 307 310 L 307 310 " />
	<path fill="none" stroke="#2daae4" stroke-opacity="1" stroke-width="7" d="M 307 310 L 304 303 " />
	<path fill="none" stroke="#2daae4" stroke-opacity="1" stroke-width="7" d="M 308 311 L 308 311 " />
	<path fill="none" stroke="#2daae4" stroke-opacity="1" stroke-width="7" d="M 308 311 L 304 304 " />
	<path fill="none" stroke="#2daae4" stroke-opacity="1" stroke-width="7" d="M 321 325 L 321 325 " />
	<path fill="none" stroke="#2daae4" stroke-opacity="1" stroke-width="7" d="M 321 325 L 315 320 " />
	<path fill="none" stroke="#2daae4" stroke-opacity="1" stroke-width="7" d="M 614 235 L 614 235 " />
	<path fill="none" stroke="#2daae4" stroke-opacity="1" stroke-width="7" d="M 614 235 L 621 230 " />
	<path fill="none" stroke="#2daae4" stroke-opacity="1" stroke-width="7" d="M 268 486 L 268 486 " />
	<path fill="none" stroke="#2daae4" stroke-opacity="1" stroke-width="7" d="M 268 486 L 262 491 " />
	<path fill="none" stroke="#2daae4" stroke-opacity="1" stroke-width="7" d="M 306 459 L 306 459 " />
	<path fill="none" stroke="#2daae4" stroke-opacity="1" stroke-width="7" d="M 306 459 L 300 464 " />
	<path fill="none" stroke="#2daae4" stroke-opacity="1" stroke-width="7" d="M 300 464 L 293 469 " />
	<path fill="none" stroke="#2daae4" stroke-opacity="1" stroke-width="7" d="M 487 367 L 487 367 " />
	<path fill="none" stroke="#2daae4" stroke-opacity="1" stroke-width="7" d="M 487 367 L 480 371 " />
	<path fill="none" stroke="#2daae4" stroke-opacity="1" stroke-width="7" d="M 480 371 L 473 375 " />
	<path fill="none" stroke="#2daae4" stroke-opacity="1" stroke-width="7" d="M 543 296 L 543 296 " />
	<path fill="none" stroke="#2daae4" stroke-opacity="1" stroke-width="7" d="M 543 296 L 538 302 " />
	<path fill="none" stroke="#2daae4" stroke-opacity="1" stroke-width="7" d="M 572 267 L 572 267 " />
	<path fill="none" stroke="#2daae4" stroke-opacity="1" stroke-width="7" d="M 572 267 L 566 273 " />
	<path fill="none" stroke="#2daae4" stroke-opacity="1" stroke-width="7" d="M 247 502 L 247 502 " />
	<path fill="none" stroke="#2daae4" stroke-opacity="1" stroke-width="7" d="M 247 502 L 240 506 " />
	<path fill="none" stroke="#2daae4" stroke-opacity="1" stroke-width="7" d="M 355 427 L 355 427 " />
	<path fill="none" stroke="#2daae4" stroke-opacity="1" stroke-width="7" d="M 355 427 L 348 431 " />
	<path fill="none" stroke="#2daae4" stroke-opacity="1" stroke-width="7" d="M 348 431 L 342 436 " />
	<path fill="none" stroke="#2daae4" stroke-opacity="1" stroke-width="7" d="M 525 324 L 525 324 " />
	<path fill="none" stroke="#2daae4" stroke-opacity="1" stroke-width="7" d="M 525 324 L 522 331 " />
	<path fill="none" stroke="#2daae4" stroke-opacity="1" stroke-width="7" d="M 557 280 L 557 280 " />
	<path fill="none" stroke="#2daae4" stroke-opacity="1" stroke-width="7" d="M 557 280 L 552 286 " />
	<circle cx="381" cy="231" r="6" stroke="none" fill="#141e28" fill-opacity="1" />
	<circle cx="381" cy="231" r="6" stroke="#c1ccd1" stroke-opacity="1" stroke-width="1" fill="none"  />
	<circle cx="299" cy="284" r="6" stroke="none" fill="#141e28" fill-opacity="1" />
	<circle cx="299" cy="284" r="6" stroke="#c1ccd1" stroke-opacity="1" stroke-width="1" fill="none"  />
	<circle cx="359" cy="348" r="6" stroke="none" fill="#141e28" fill-opacity="1" />
	<circle cx="359" cy="348" r="6" stroke="#c1ccd1" stroke-opacity="1" stroke-width="1" fill="none"  />
	<circle cx="452" cy="331" r="6" stroke="none" fill="#141e28" fill-opacity="1" />
	<circle cx="452" cy="331" r="6" stroke="#c1ccd1" stroke-opacity="1" stroke-width="1" fill="none"  />
	<circle cx="481" cy="281" r="6" stroke="none" fill="#141e28" fill-opacity="1" />
	<circle cx="481" cy="281" r="6" stroke="#c1ccd1" stroke-opacity="1" stroke-width="1" fill="none"  />
	<circle cx="544" cy="294" r="7" stroke="none" fill="#141e28" fill-opacity="1" />
	<circle cx="544" cy="294" r="7" stroke="#c1ccd1" stroke-opacity="1" stroke-width="1" fill="none"  />
	<circle cx="524" cy="327" r="6" stroke="none" fill="#141e28" fill-opacity="1" />
	<circle cx="524" cy="327" r="6" stroke="#c1ccd1" stroke-opacity="1" stroke-width="1" fill="none"  />
	<circle cx="492" cy="364" r="6" stroke="none" fill="#141e28" fill-opacity="1" />
	<circle cx="492" cy="364" r="6" stroke="#c1ccd1" stroke-opacity="1" stroke-width="1" fill="none"  />
	<circle cx="421" cy="393" r="6" stroke="none" fill="#141e28" fill-opacity="1" />
	<circle cx="421" cy="393" r="6" stroke="#c1ccd1" stroke-opacity="1" stroke-width="1" fill="none"  />
	<circle cx="381" cy="231" r="4" stroke="none" fill="#c1ccd1" fill-opacity="1" />
	<circle cx="381" cy="231" r="4" stroke="#c1ccd1" stroke-opacity="1" stroke-width="0.000001" fill="none"  />
	<circle cx="299" cy="284" r="4" stroke="none" fill="#c1ccd1" fill-opacity="1" />
	<circle cx="299" cy="284" r="4" stroke="#c1ccd1" stroke-opacity="1" stroke-width="0.000001" fill="none"  />
	<circle cx="359" cy="348" r="4" stroke="none" fill="#c1ccd1" fill-opacity="1" />
	<circle cx="359" cy="348" r="4" stroke="#c1ccd1" stroke-opacity="1" stroke-width="0.000001" fill="none"  />
	<circle cx="452" cy="331" r="4" stroke="none" fill="#c1ccd1" fill-opacity="1" />
	<circle cx="452" cy="331" r="4" stroke="#c1ccd1" stroke-opacity="1" stroke-width="0.000001" fill="none"  />
	<circle cx="481" cy="281" r="4" stroke="none" fill="#c1ccd1" fill-opacity="1" />
	<circle cx="481" cy="281" r="4" stroke="#c1ccd1" stroke-opacity="1" stroke-width="0.000001" fill="none"  />
	<circle cx="544" cy="294" r="4" stroke="none" fill="#c1ccd1" fill-opacity="1" />
	<circle cx="544" cy="294" r="4" stroke="#c1ccd1" stroke-opacity="1" stroke-width="0.000001" fill="none"  />
	<circle cx="524" cy="327" r="4" stroke="none" fill="#c1ccd1" fill-opacity="1" />
	<circle cx="524" cy="327" r="4" stroke="#c1ccd1" stroke-opacity="1" stroke-width="0.000001" fill="none"  />
	<circle cx="492" cy="364" r="4" stroke="none" fill="#c1ccd1" fill-opacity="1" />
	<circle cx="492" cy="364" r="4" stroke="#c1ccd1" stroke-opacity="1" stroke-width="0.000001" fill="none"  />
	<circle cx="421" cy="393" r="4" stroke="none" fill="#c1ccd1" fill-opacity="1" />
	<circle cx="421" cy="393" r="4" stroke="#c1ccd1" stroke-opacity="1" stroke-width="0.000001" fill="none"  />
	<path fill="#141e28" fill-opacity="0.3725" stroke="none" d="M 0 0 L 1024 0 L 1024 46 L 0 46 L 0 0 " />
</g>


</svg>
