<?xml version="1.0" encoding="UTF-8" standalone="no"?>

<svg xmlns="http://www.w3.org/2000/svg" xmlns:xlink= "http://www.w3.org/1999/xlink" width="61" height="51" viewBox="670 430 183 153">

<defs>
	<clipPath id="clipPath_E2">
		<rect x="0" y="0" width="1648" height="1072" />
	</clipPath>
</defs>

<g style="clip-path: url(#clipPath_E2);" stroke-linecap="round">
	<path fill="none" stroke="#2daae4" stroke-opacity="0.625" stroke-width="2" d="M 980 0 L 665 1072 " />
	<path fill="none" stroke="#2daae4" stroke-opacity="0.625" stroke-width="2" d="M 904 0 L 745 1072 " />
	<path fill="none" stroke="#2daae4" stroke-opacity="0.625" stroke-width="2" d="M 829 0 L 825 1072 " />
	<path fill="none" stroke="#2daae4" stroke-opacity="0.625" stroke-width="2" d="M 753 0 L 909 1072 " />
	<path fill="none" stroke="#2daae4" stroke-opacity="0.625" stroke-width="2" d="M 670 0 L 1004 1072 " />
	<path fill="none" stroke="#2daae4" stroke-opacity="0.625" stroke-width="2" d="M 574 0 L 1118 1072 " />
	<path fill="none" stroke="#2daae4" stroke-opacity="0.625" stroke-width="2" d="M 452 0 L 1266 1072 " />
	<path fill="none" stroke="#2daae4" stroke-opacity="0.625" stroke-width="2" d="M 277 0 L 1486 1072 " />
	<path fill="none" stroke="#2daae4" stroke-opacity="0.625" stroke-width="2" d="M 0 17 L 1648 939 " />
	<path fill="none" stroke="#2daae4" stroke-opacity="0.625" stroke-width="2" d="M 0 239 L 1648 701 " />
	<path fill="none" stroke="#2daae4" stroke-opacity="0.625" stroke-width="2" d="M 0 446 L 1648 471 " />
	<path fill="none" stroke="#2daae4" stroke-opacity="0.625" stroke-width="2" d="M 0 664 L 1648 222 " />
	<path fill="none" stroke="#2daae4" stroke-opacity="0.625" stroke-width="2" d="M 0 924 L 1513 0 " />
	<path fill="none" stroke="#2daae4" stroke-opacity="0.625" stroke-width="2" d="M 196 1072 L 1173 0 " />
	<path fill="none" stroke="#2daae4" stroke-opacity="0.625" stroke-width="2" d="M 436 1072 L 980 0 " />
	<path fill="none" stroke="#2daae4" stroke-opacity="0.625" stroke-width="2" d="M 602 1072 L 842 0 " />
	<path fill="none" stroke="#2daae4" stroke-opacity="0.625" stroke-width="2" d="M 734 1072 L 726 0 " />
	<path fill="none" stroke="#2daae4" stroke-opacity="0.625" stroke-width="2" d="M 851 1072 L 619 0 " />
	<path fill="none" stroke="#2daae4" stroke-opacity="0.625" stroke-width="2" d="M 966 1072 L 510 0 " />
	<path fill="none" stroke="#2daae4" stroke-opacity="0.625" stroke-width="2" d="M 1087 1072 L 391 0 " />
	<path fill="none" stroke="#2daae4" stroke-opacity="0.625" stroke-width="2" d="M 1226 1072 L 250 0 " />
	<path fill="none" stroke="#2daae4" stroke-opacity="0.625" stroke-width="2" d="M 1400 1072 L 70 0 " />
	<path fill="none" stroke="#2daae4" stroke-opacity="0.625" stroke-width="2" d="M 1638 1072 L 0 107 " />
	<path fill="none" stroke="#2daae4" stroke-opacity="0.625" stroke-width="2" d="M 1648 921 L 0 241 " />
	<path fill="none" stroke="#2daae4" stroke-opacity="0.625" stroke-width="2" d="M 1648 788 L 0 357 " />
	<path fill="none" stroke="#2daae4" stroke-opacity="0.625" stroke-width="2" d="M 1648 667 L 0 464 " />
	<path fill="none" stroke="#2daae4" stroke-opacity="0.625" stroke-width="2" d="M 1648 554 L 0 566 " />
	<path fill="none" stroke="#2daae4" stroke-opacity="0.625" stroke-width="2" d="M 1648 443 L 0 667 " />
	<path fill="none" stroke="#2daae4" stroke-opacity="0.625" stroke-width="2" d="M 1648 330 L 0 771 " />
	<path fill="none" stroke="#2daae4" stroke-opacity="0.625" stroke-width="2" d="M 1648 210 L 0 883 " />
	<path fill="none" stroke="#2daae4" stroke-opacity="0.625" stroke-width="2" d="M 1648 79 L 0 1007 " />
	<path fill="none" stroke="#2daae4" stroke-opacity="0.625" stroke-width="2" d="M 1551 0 L 107 1072 " />
	<path fill="none" stroke="#2daae4" stroke-opacity="0.625" stroke-width="2" d="M 1384 0 L 266 1072 " />
	<path fill="none" stroke="#2daae4" stroke-opacity="0.625" stroke-width="2" d="M 1255 0 L 390 1072 " />
	<path fill="none" stroke="#2daae4" stroke-opacity="0.625" stroke-width="2" d="M 1150 0 L 493 1072 " />
	<path fill="none" stroke="#2daae4" stroke-opacity="0.625" stroke-width="2" d="M 1061 0 L 583 1072 " />
	<circle cx="774" cy="493" r="0" stroke="#878787" stroke-opacity="1" stroke-width="1" fill="none"  />
	<path fill="none" stroke="#ef1021" stroke-opacity="1" stroke-width="4" d="M 825.5 527.5 L 826.5 524.5 L 827.5 520.5 L 827.5 517.5 L 827.5 513.5 L 827.5 509.5 L 827.5 505.5 L 826.5 501.5 L 825.5 496.5 L 823.5 492.5 L 821.5 488.5 L 819.5 483.5 L 816.5 479.5 L 812.5 475.5 L 808.5 471.5 L 804.5 467.5 L 799.5 464.5 L 794.5 462.5 L 788.5 460.5 L 782.5 459.5 L 776.5 458.5 L 770.5 458.5 L 763.5 460.5 L 758.5 462.5 L 752.5 464.5 L 747.5 468.5 L 742.5 472.5 L 738.5 477.5 L 735.5 483.5 L 733.5 488.5 L 731.5 494.5 L 730.5 500.5 L 730.5 506.5 L 730.5 512.5 L 731.5 517.5 L 732.5 522.5 L 734.5 527.5 L 736.5 532.5 L 739.5 536.5 L 742.5 539.5 L 744.5 543.5 L 747.5 546.5 L 751.5 549.5 L 754.5 551.5 L 757.5 553.5 L 760.5 555.5 L 763.5 556.5 L 767.5 557.5 L 770.5 558.5 L 773.5 559.5 L 776.5 560.5 L 779.5 560.5 L 782.5 560.5 L 785.5 560.5 L 788.5 560.5 L 791.5 559.5 L 794.5 558.5 L 796.5 558.5 L 799.5 557.5 L 801.5 556.5 L 804.5 554.5 L 806.5 553.5 L 808.5 551.5 L 811.5 550.5 L 813.5 548.5 L 815.5 546.5 L 817.5 543.5 L 818.5 541.5 L 820.5 539.5 L 821.5 536.5 L 823.5 533.5 L 824.5 530.5 L 825.5 527.5 " />
	<circle cx="730" cy="503" r="4" stroke="none" fill="#ef1021" fill-opacity="1" />
	<circle cx="730" cy="503" r="4" stroke="#ef1021" stroke-opacity="1" stroke-width="1" fill="none"  />
	<circle cx="769" cy="491" r="4" stroke="#878787" stroke-opacity="1" stroke-width="0.000001" fill="none"  />
</g>
</svg>
