<svg xmlns="http://www.w3.org/2000/svg" width="398" height="398"><defs><clipPath clipPathUnits="userSpaceOnUse" id="a"><circle paint-order="stroke fill markers" stroke-linejoin="round" stroke-linecap="round" stroke-width="3" fill-opacity=".534" fill="red" cx="-226" cy="396" r="364.815"/></clipPath></defs><g stroke-width="1.993" clip-path="url(#a)" transform="matrix(.50175 0 0 .5016 310.166 -.045)"><path fill="#1c2838" color="#000" d="M-335.664 653.953c-4.653 1.199-9.292 2.592-13.63 4.683-2.897 1.47-5.797 3.064-8.188 5.29-1.08 1.152-1.612 2.7-2.167 4.15-1.123 3.067-.58 6.398.256 9.46.95 3.347 1.673 6.874 1.022 10.35-.726 4.472-3.483 8.875-7.818 10.58-2.203.849-4.566 1.192-6.915 1.28-.639.03-1.592.034-2.355.039-6.75-.173-13.61.676-19.881 3.275-5.035 2.043-9.65 5.194-13.175 9.35l-1.298 1.414 1.772.465v78.763h360.204l1.046-79.359c.583-.396 1.07-.8.279-1.285-4.881-5.793-11.86-9.525-19.16-11.28-4.707-1.18-9.582-1.435-14.415-1.347-1.341-.007-2.46-.036-3.797-.175-3.191-.329-6.512-1.286-8.778-3.687-3.76-3.782-4.917-9.56-3.861-14.677.75-3.78 2.369-7.583 1.59-11.497a15.721 15.721 0 00-2.223-5.407c-1.987-2.112-4.57-3.538-7.077-4.941-4.025-2.194-8.425-3.557-12.806-4.84-4.318 4.7-9.178 8.856-13.988 13.035-1.04-.667-2.092-1.313-3.141-1.965a30.533 30.533 0 01-3.996 6.03c-4.923 5.922-10.488 11.315-16.524 16.096-4.076 3.146-8.388 6.18-13.311 7.828-2.31.73-5.127 1.192-7.208-.366-.6-.5-1.162-1.044-1.746-1.563a48.12 48.12 0 01-8.383 6.323c-7.657 4.598-15.947 8.104-24.481 10.706a86.664 86.664 0 01-3.628 1.01c-6.134 1.581-12.525 2.582-18.861 1.827-9.083-1.004-17.855-3.973-26.092-7.854-5.626-2.693-11.034-5.91-15.788-9.97-.521-.677-.768.564-1.149.867-.4.615-.84 1.405-1.702 1.318-1.307.03-2.753-.58-3.824-.942-9.48-3.46-17.495-10.016-24.2-17.427l-2.601-2.852c-.487.902-.935 1.848-1.443 2.725-1.454.35-2.924-.344-4.249-.883-2.667-1.183-4.676-3.373-6.732-5.37-3.79-3.877-6.995-8.285-9.812-12.905-.64-1.05-1.39-2.317-2.041-3.472-.516-.905-1.031-1.81-1.545-2.716-.724.013-1.478-.267-2.18-.084z" style="mix-blend-mode:normal;solid-color:#000;solid-opacity:1"/><path stroke-linejoin="round" stroke-linecap="round" stroke-width="7.973" stroke="#000" fill="#f0ac88" d="M-297.006 679.158v14.557c6.862 3.633 14.296 7.366 22.252 11.21 21.918 10.593 39.748 26.353 46.129 45.245h.46c6.382-18.892 24.71-34.232 46.243-45.584 8.831-4.656 17.205-9.053 24.828-13.168v-12.26z"/><path fill="#f1ad88" color="#000" d="M-239.607 236.434c-22.988.36-45.95 5.729-66.493 16.112-18.319 9.208-34.587 22.383-47.581 38.227-14.9 18.085-25.516 39.446-32.3 61.811-7.492 24.641-10.548 50.467-10.68 76.17-.025 1.094-.067 2.19.3 3.24l1.459 6.127c-3.896-.803-8.28-.883-11.758 1.314-3.286 2.361-5.987 5.598-7.543 9.35-2.474 5.82-2.567 12.256-2.686 18.476-.17 10.813 1.208 21.661 4.304 32.03 1.894 6.385 4.242 12.637 6.969 18.71 4.223 9.189 10.937 16.864 17.128 24.749 1.49 1.749 2.688 3.767 4.433 5.283 2.267 1.873 5.327 2.274 8.166 2.41l8.114 4.198c-.661 6.69-1.425 13.382-2.758 19.976 1.732.479 3.824.78 4.816 2.483.376 1.01.547 2.1.896 3.128 4.7 16.217 12.984 31.412 24.295 43.965 13.135 14.705 30.106 25.725 48.451 32.79 22.167 8.563 46.28 11.65 69.937 10.004 29.306-2.066 58.258-11.461 82.568-28.086 16.589-11.308 30.853-26.085 41.243-43.286a139.482 139.482 0 007.347-13.832c-.28-.98-.055-2.105.8-2.726 1.553-1.506 3.107-3.01 4.659-4.518a288.436 288.436 0 01-3.014-21.703c-.06-.501-.294-1.32.593-1.17 2.241-.356 4.466-.872 6.717-1.13 3.34-.085 6.907-.068 9.89-1.782 2.256-1.356 3.535-3.753 5.209-5.698 6.22-7.944 13.003-15.644 17.285-24.876a150 150 0 006.803-18.048c3.113-10.159 4.61-20.789 4.564-31.409-.084-5.652-.06-11.407-1.621-16.89-1.136-4.153-3.43-7.993-6.68-10.835-1.926-1.973-4.59-3.093-7.319-3.312-2.263-.215-4.55.025-6.763.517.246-2.383.636-4.759.795-7.148-.015-27.472-4.537-55.09-14.662-80.691-9.182-23.358-23.061-44.907-40.856-62.633-21.31-21.32-48.166-37.065-77.225-45.111-15.532-4.317-31.679-6.454-47.802-6.186z" style="mix-blend-mode:normal;solid-color:#000;solid-opacity:1"/><path fill="#a4a696" color="#000" d="M-218.984 198.82c-25.677.24-51.47 4.028-75.705 12.68-10.008 3.546-19.705 8.045-28.65 13.783-12.696 8.13-24.118 18.5-32.544 31.06-5.276 7.93-9.38 16.845-10.62 26.358-.31 2.202-.5 4.435-.358 6.658-1.153-2.054-1.698-4.375-2.541-6.562-3.772 1.69-7.431 3.646-10.81 6.035-3.839 2.687-7.514 5.62-10.939 8.819-4.56 4.317-8.065 9.786-9.791 15.842-1.265 4.232-1.59 8.66-2.285 13.003 3.367-3.747 6.542-7.673 10.104-11.239.514-.488 1.022-.983 1.56-1.444-3.188 6.292-6.411 12.589-8.962 19.173-1.133 3.135-1.812 6.41-2.656 9.629-3.29 13.238-5.517 26.864-5.036 40.543.284 4.586 2.064 8.869 3.37 13.22-.107 12.174.277 24.345.652 36.51 2.673-.375 5.366-.719 8.071-.517l2.054.072c-.614-3.525-1.167-7.063-1.909-10.564.987 2.836 1.542 5.802 2.21 8.725 1.874 8.716 2.852 17.601 3.606 26.44.322 3.235.481 6.49.874 9.718.81 3.571 3.039 6.655 5.56 9.236 1.803 1.794 3.846 3.319 5.77 4.977.39-8.352.45-16.715.274-25.073-.201-11.683-.67-23.369-.356-35.054.122-2.55.072-5.254.503-7.83 1.172-6.397 3.865-12.365 5.709-18.573.912-2.922 1.902-5.836 3.172-8.616 1.633-11.635 1.548-23.407 2.258-35.112.447-6.54 1.148-13.094 2.688-19.475 1.078-4.38 2.711-8.766 5.744-12.188.39-.477 1.052-.986.158-1.313-.234-.23-1.37-.968-1.03-.874 2.949 1.233 6.117 1.786 9.232 2.429 8.918 1.73 18.193 1.755 27.07-.247 9.554-2.12 18.573-6.227 26.915-11.285a57.475 57.475 0 003.007-2.024c-1.38 1.162-2.818 2.252-4.229 3.375 3.396 2.56 6.927 4.975 10.793 6.774 10.071 4.827 21.32 6.58 32.398 6.933 14.412.41 28.756-1.418 43.038-3.104 9.34-1.137 18.778-2.238 28.09-3.08 4.891-.43 9.944-.79 14.752-1.015 3.972-.165 7.912-.271 11.927-.232 15.789.125 32.043 2.207 46.572 8.89a74.442 74.442 0 0119.503 12.955c.277.258.866.818 1.263 1.192 1.528 1.756 2.942 3.61 4.301 5.5-1.897-2.144-3.91-4.181-5.865-6.272.005 10.848.036 21.726 1.327 32.512 1.045 8.953 2.79 17.818 5.027 26.546 1.573 5.705 4.146 11.082 5.902 16.718.022 11.748.305 23.497.004 35.244-.061 1.986-.123 4.176-.23 6.239-.273 6.12-.762 12.146-1.562 18.236-.253 1.932-.55 3.858-.827 5.786 2.086-.238 4.358-.143 6.144-1.433 3.213-2.164 4.9-5.876 6.035-9.455 1.292-4.014 1.418-8.263 1.856-12.424.835-9.255 1.399-18.604 3.77-27.629a86.537 86.537 0 011.025-3.615c.467-1.36.764-2.804 1.53-4.04-.418 2.627-1.177 5.187-1.631 7.808-.368 1.895-.71 3.796-1.067 5.693 2.444-.685 4.887-1.573 7.464-1.491.883-.01 1.757.14 2.636.21 1.759-12.53 2.171-25.187 3.077-37.793.049-1.173.196-2.33.63-3.428 1.162-3.936 2.555-7.851 3.011-11.95.098-3.695-.073-7.396-.193-11.091-.212-5.912-.691-11.763-.815-17.666.008-1.635 1.67-2.484 2.224-3.9.993-2.093.728-4.496.618-6.739-.341-3.874-1.453-7.625-2.42-11.377-3.664-13.134-8.833-25.863-15.483-37.77-3.383-6.038-7.195-11.843-11.515-17.253 1.233 1.028 2.377 2.202 3.688 3.112l4.502 1.774c-.657-1.578-1.237-3.202-1.94-4.751-12.307-14.47-26.53-27.399-42.61-37.563-17.693-11.272-37.498-19.111-58.003-23.459-7.86-1.743-15.667-4.218-23.789-4.285-.369-.035-1.778.035-.747-.207 4.293-1.371 8.769-2.042 13.126-3.146l5.502-2.186c-2.099-.556-4.165-1.27-6.284-1.725-12.894-1.63-25.895-2.443-38.894-2.338z" style="mix-blend-mode:normal;solid-color:#000;solid-opacity:1"/><path fill-opacity=".2" d="M-221.404 211.938c-14.053 2.45-41.943 7.953-62.52 36.583-16.642 7.779-22.909 15.239-27.826 21.127 58.286-37.36 119.16-29.321 156.816-17.003-12.518-7.87-45.672-26.873-107.275-13.586 10.442-13.78 24.895-21.544 40.805-27.121zm-122.409 38.486c-4.473-.238-18.598 16.464-22.18 29.19a48.523 48.523 0 00-.51 3.087 45.175 45.175 0 00-.3 2.752c.027.695.097 1.366.242 1.994-.119.082-.229.164-.347.246-.003.556.011 1.111.047 1.666-.23-.409-.43-.83-.62-1.257-24.819 17.496-25.237 37.716-24.335 48.06 3.7-9.97 4.039-19.376 14.875-30.535-2.966 5.334-5.893 10.86-8.223 19.373 11.137-15.541 14.862-12.661 19.352-14.35-15.51 14.083-23.603 43.523-20.21 52.485 3.392-17.641 13.634-30.833 16.485-33.012.05 5.4-.041 12.753 2.312 16.422.088-.271.879-3.137 1.928-6.815.402-2.851.91-5.687 1.586-8.488.866-3.518 2.105-7.031 4.125-10.054.416-1.234.833-2.472 1.258-3.668.126.047.3.109.44.16-.308-.266-1.272-.9-.95-.813 2.948 1.234 6.116 1.787 9.23 2.43 8.92 1.73 18.194 1.754 27.07-.248 9.555-2.12 18.574-6.227 26.915-11.285a57.488 57.488 0 003.008-2.024c-1.38 1.162-2.818 2.252-4.229 3.375 2.784 2.1 5.662 4.094 8.739 5.739 6.132 2.713 12.176 4.756 18.09 6.218 5.388 1.058 10.896 1.576 16.363 1.75 10.07.287 20.104-.526 30.11-1.613.363-.091.737-.169 1.099-.264 1.088-.029-32.057-6.156-35.168-10.9 40.17 3.83 62.534-4.748 69.523-10.184-15.851 3.627-61.975 5.128-70.93-5.226 14.849-14.984 46.328-39.16 61.899-40.62-20.12-.311-69.56 17.365-85.299 35.159-3.84 4.34-48.314 27.929-61.951 17.24-2.585-1.701 1.827-9.454-1.115-12.396-1.128-1.128-6.902-5.083-12.102 2.814-.731-22.173 3.798-29.408 13.774-46.408zm117.999 30.23s17.914 11.37 28.591 13.334c10.069 1.852 31.18-1.826 31.18-1.826-20.983-.835-40.728-5.176-59.771-11.508zm77.388.717a110.4 110.4 0 00-3.011.03c29.434 7.98 47.975 20.428 64.617 39.73-4.352-12.163-13.744-23-26.42-29.809-12.694-6.817-20.59-9.894-35.186-9.95zM-396.37 398.137c-4.186 3.766-7.768 7.934-8.367 14.092.05 2.713.11 5.427.181 8.14l.59 12.488c2.598-.363 5.216-.682 7.844-.486l2.053.072c-.614-3.525-1.167-7.063-1.909-10.564.987 2.836 1.543 5.802 2.21 8.725 1.875 8.716 2.852 17.601 3.605 26.439.322 3.236.482 6.492.875 9.719.81 3.571 3.039 6.655 5.56 9.236 1.803 1.794 3.846 3.319 5.77 4.977.153-3.28.242-6.563.299-9.846l-1.877-28.164c-8.99-10.028-12.721-27.706-16.834-44.828zm339.543 1.074c-7.399 8.784-12.709 31.592-20.926 45.516-.02 1.316-.025 2.632-.058 3.949-.062 1.986-.123 4.175-.229 6.238-.274 6.121-.763 12.147-1.563 18.236-.253 1.932-.551 3.859-.828 5.788 2.087-.239 4.36-.143 6.145-1.434 3.213-2.163 4.9-5.876 6.035-9.455 1.293-4.015 1.418-8.263 1.856-12.424.834-9.255 1.398-18.604 3.77-27.629a86.519 86.519 0 011.024-3.615c.468-1.36.764-2.804 1.53-4.04-.417 2.627-1.175 5.186-1.63 7.807-.367 1.895-.71 3.797-1.068 5.694 2.445-.684 4.888-1.572 7.465-1.49.883-.01 1.757.139 2.635.209.339-2.412.617-4.829.87-7.248-1.48-18.112-3.37-16.566-5.028-26.102z"/><path fill="#d3d3d8" d="M-250.848 718.797c-.276.513-.958.933-.968 1.508.167.748.158 1.609.896 2.05 6.233 5.413 11.978 10.647 16.138 17.817 1.74 2.998 3.694 5.103 4.88 8.356.485 1.328 1.174 2.633 2.81.997 1.1-.808 1.175-2.321 1.764-3.47 3.194-7.805 8.324-12.69 14.3-18.589.75-.834 1.694-1.546 2.31-2.47.103-.604.748-1.255.238-1.807-.303-.538-.506-1.215-1.252-1.147-.591-.186-1.19-.249-1.733.11-1.775.732-3.666 1.286-5.273 2.328-2.582 1.676-5.496 4.531-10.262 2.616-6.175-2.483-12.578-4.447-18.684-6.968-1.194-.493-2.38-1.075-3.611-1.43z"/><path fill="#e7e7e7" color="#000" style="mix-blend-mode:normal;solid-color:#000;solid-opacity:1" d="M-368.576 519.357l1.18 7.413c.793 4.421.683 8.94.585 13.414-.282 8.11-1.047 16.385-2.1 24.502-.42 3.329-.965 6.642-1.62 9.933 1.731.476 3.822.778 4.814 2.48.47 1.081.328 2.318.496 3.467.61 7.774.348 15.673 2.213 23.3 1.907 8.21 5.756 15.83 10.17 22.958 4.764 7.611 10.512 14.586 16.97 20.819l2.098 2.093c.068-2.779.136-5.558.202-8.338 3.338 9.535 8.928 18.153 15.636 25.657 2.849 3.233 5.945 6.233 8.942 9.326-.325-4.306-.688-8.61-.992-12.918 1.075 1.537 1.916 3.232 3.027 4.75a94.457 94.457 0 0015.822 17.46c2.919 2.54 6.13 4.708 9.451 6.682l3.616 2.243c-1.867-4.025-3.823-8.01-5.635-12.059-.216-.515-.462-1.385.207-.6 1.113 1.233 2.092 2.598 3.363 3.686 4.585 4.127 9.953 7.267 15.371 10.162 8.188 4.283 16.753 7.905 25.647 10.442 4.687 1.284 9.551 2.316 14.437 1.84 8.116-.718 15.996-3.128 23.5-6.225 8.86-3.741 17.36-8.631 24.375-15.27 1.66-1.518 3.026-3.33 4.735-4.795-.139 3.168-.29 6.336-.432 9.504 2.75-.629 5.522-1.286 8.047-2.586 6.485-3.22 11.899-8.207 16.742-13.513 5.998-6.72 11.192-14.212 15.031-22.373a50.121 50.121 0 003.116-8.647c.146-.43.488-1.482.539-.457.29 2.195-.11 4.408-.188 6.607-.27 3.435-.844 6.836-1.28 10.252 4.09-3.612 8.25-7.178 11.823-11.32 6.563-7.393 11.63-16.02 15.416-25.13.093 2.36-.36 4.706-.162 7.064l.176 4.457c1.235-1.922 2.608-3.764 3.754-5.739 3.765-7.515 5.82-15.758 7.213-24.01 1.127-7.103 1.838-14.311 1.53-21.51-.004-1.28-.31-2.545-.335-3.817.19-1.283 1.489-1.912 2.26-2.827l3.295-3.193c-1.533-8.689-2.711-17.444-3.415-26.24-.071-1.16-.191-2.567-.25-3.828-.041-.869-.101-1.678-.12-2.448-.13-3.992-.232-8.039.583-11.97l.78-6.117c-6.21 16.078-11.356 32.833-16.418 49.28-.384-.548-.727-7.343-1.412-7.368-4.296 7.796-9.02 19.525-12.832 28.673-.348-2.284-.87-10.936-1.6-12.99-3.434 3.344-5.176 19.915-5.19 23.838-1.596-5.725-4.083-10.35-7.34-14.139-.335 1.51-1.086 3.19-1.261 4.196-2.392-6.37-8.496-11.554-14.008-15.053-3.932-2.496-10.494-5.686-15.156-6.176-21.655-2.275-42.81 2.086-62.086 1.801-19.277-.284-41.691-4.097-62.086-2.213-11.957 1.105-17.698 5.566-23.088 9.17-5.275 3.527-8.944 9.392-10.543 14.82-2.707-2.141-7.543-10.167-9.627-14.072-1.8 6.657 1.198 13.423 1.613 15.315-5.461-9.075-10.774-21.006-17.925-27.256l3.584 11.086c-9.966-16.88-18.56-46.447-25.258-63.493zm86.64 72.596c.924-.01 1.852-.009 2.784.002 16.146.194 31.416 3.524 51.324 3.524 19.908 0 43.149-5.044 62.305-3.079 10.94 1.123 14.302 11.556 14.302 19.018 0 11.434-17.573 24.957-43.07 31.746-11.934 3.178-19.242-1.872-22.324-11.488-2.371.98-8.206.783-11.213.783-3.007 0-8.842.198-11.213-.783-3.083 9.616-10.39 14.666-22.324 11.488-25.497-6.789-43.07-20.312-43.07-31.746 0-7.462 3.362-17.895 14.302-19.018a90.77 90.77 0 018.197-.447z"/><path fill="#c7c6c8" d="M-100.897 613.1c-7.453 21.471-18.212 34.806-27.083 42.873.24-4.246 2.934-16.712-2.565-24.041-6.728 13.461-7.406 29.465-36.54 49.283-.342-2.965-.283-5.932-2.245-8.897-6.734 9.303-15.03 17.615-21.315 22.92l18.91-1.283c15.89-6.822 29.622-20.12 43.434-33.176 9.296-8.378 18.59-16.69 27.885-27.564.823-7.47 1.959-15.297-.48-20.115zm-236.553 12.742c-1.95 2.743-3.392 5.671-3.204 9.615-4.253-1.703-7.826-5.785-11.7-8.814 4.37 13.32 17.754 24.97 27.245 37.341l32.695 25.805c7.596 3.652 14.496 3.373 21.475 3.525-7.05-6.463-13.286-14.18-18.912-20.034-.599 2.169-.134 8.27 2.244 14.265-11.043-11.948-19.991-23.566-25.962-34.457-1.187 4.012-2.477 10.026-2.406 16.346-8.65-14.828-16.539-26.956-21.475-43.592z"/><path fill="#bd5645" d="M-251.678 623.988c-1.475.112-.922 1.652.588 2.471 6.776 3.675 14.912 5.672 23.31 5.672 8.399 0 16.536-1.997 23.311-5.672 1.86-1.008 2.268-3.107-.771-2.293-4.96 1.329-14.698 1.145-22.54 1.145-7.84 0-17.579.184-22.538-1.145-.57-.153-1.02-.203-1.36-.178z"/><path color="#000" style="mix-blend-mode:normal;solid-color:#000;solid-opacity:1" d="M-291.308 592.387c-1.985 0-5.808 3.964-5.808 6.715 0 3.317 1.895 4.363 5.213 4.363a6.99 6.99 0 003.634-1.047c9.464 2.656 31.993 7.988 60.338 7.988 28.348 0 50.878-5.332 60.34-7.988a6.983 6.983 0 003.633 1.047c3.317 0 5.213-1.046 5.213-4.363 0-2.751-3.823-6.715-5.809-6.715-3.317 0-5.92 1.925-5.92 5.242 0 .132.014.26.024.39-9.864 2.672-31 7.387-57.48 7.387-26.48 0-47.614-4.715-57.48-7.386.01-.13.024-.259.024-.391 0-3.317-2.605-5.242-5.922-5.242z"/><g stroke-width="3.974" font-family="sans-serif" font-weight="400" color="#000"><path fill="#c76752" overflow="visible" style="mix-blend-mode:normal;solid-color:#000;solid-opacity:1" d="M-254.379 552.31l-11.75 4.147a4.5 4.5 0 004.5 4.5c6.722 0 11.736.75 16.951 2.72 5.215 1.972 10.695 4.12 17.5 4.12s12.285-2.148 17.5-4.12c5.215-1.97 10.23-2.72 16.951-2.72a4.5 4.5 0 004.5-4.5l-11.75-4.146c-4.978.51-9.185 1.55-12.882 2.947-5.37 2.029-9.595 3.539-14.319 3.539-4.723 0-8.95-1.51-14.318-3.54-3.697-1.396-7.905-2.435-12.883-2.946z"/><path fill="#64211a" overflow="visible" style="mix-blend-mode:normal;solid-color:#000;solid-opacity:1" d="M-207.152 454.92a2 2 0 00-2 2c-.005 19.287 1.919 34.568 6.875 53.787.275 1.07 2.576 5.625 3.357 6.406 2.716 2.716 2.137.624 1.725-1.271-.294-1.35-.558-3.435-1.05-5.41-4.722-19.005-6.912-34.544-6.907-53.51a2 2 0 00-2-2.002zm-61.563 79.738c-.302.035-.685.19-1.086.453-1.963 1.287-2.439 1.79-3.957 3.705-2.635 3.327-3.835 7.55-3.06 11.565.774 4.015 3.52 7.79 8.064 9.008 1.667.446 3.177.393 4.408-.01 1.231-.403 2.116-1.046 2.903-1.56 1.573-1.03 2.731-1.861 6.314-1.51 6.818.667 10.803 3.924 14.822 7.197 3.076 2.504 6.664 5.103 11.016 5.812h4.227c4.351-.709 7.94-3.308 11.015-5.812 4.02-3.273 8.004-6.53 14.822-7.198 3.583-.35 4.741.481 6.315 1.51.787.515 1.671 1.158 2.902 1.56 1.231.403 2.742.457 4.408.01 4.544-1.217 7.29-4.992 8.065-9.007.774-4.015-.426-8.238-3.06-11.565-1.519-1.916-1.994-2.418-3.958-3.705-1.425-.934-2.61-.52-.841 1.897.726.993 1.948 3.236 2.63 4.695 1.18 2.523 1.846 5.094 1.301 7.922-.545 2.828-2.184 5.1-5.174 5.9-1.084.291-1.607.222-2.129.051-.522-.17-1.11-.553-1.955-1.105-1.69-1.106-4.431-2.58-8.892-2.143-7.957.779-12.938 4.8-16.961 8.076-3.41 2.778-6.762 5.096-10.602 5.096-3.84 0-7.19-2.318-10.601-5.096-4.023-3.276-9.004-7.297-16.961-8.076-4.461-.436-7.203 1.037-8.893 2.143-.845.552-1.433.935-1.955 1.105-.522.17-1.044.24-2.129-.05-2.99-.802-4.628-3.073-5.174-5.901-.545-2.828.121-5.4 1.301-7.922.683-1.46 1.904-3.702 2.631-4.695 1.105-1.51 1.057-2.238.518-2.344a.902.902 0 00-.274-.006z"/></g><path fill-opacity=".45" fill="#fff" d="M-218.984 198.82c-25.677.24-51.47 4.027-75.705 12.68-9.346 3.31-18.411 7.467-26.856 12.674l.012.39c20.118-6.425 40.475-16.895 60.18-16.275-21.128 7.586-32.167 15.92-41.051 24.412 56.987-32.325 99.923-26.178 122.545-29.148l3.425-1.426c-1.211-.357-2.425-.705-3.656-.969-12.894-1.63-25.896-2.443-38.894-2.338zm49.828 13.59l-.137 1.223c-12.9 1.557-26.017 1.593-38.5 6.072 46.686 1.295 63.187 13.18 85.016 23.197-7.433-6.76-17.905-13.52-35.828-20.28 40.048 7.06 61.447 26.843 81.494 41.9l.113-1.463c-9.913-10.166-20.887-19.301-32.897-26.893-17.693-11.272-37.498-19.111-58.003-23.459-.42-.093-.839-.2-1.258-.297zm-107.38 11.426c-8.5 4.21-17.149 7.243-25.503 13.117-7.12 5.006-12.494 12.594-18.219 19.674 13.054-11.387 27.433-22.375 43.723-32.791zm-45.907 9.594c-7.31 3.793-16.689 11.902-24.291 22.105-10.109 13.567-11.888 41.733-11.174 41.049 6.357-18.168 32.851-49.192 36.34-52.522-4.507 1.524-17.636 11.289-24.348 20.356 5.45-9.433 15.937-24.038 23.473-30.988zm108.52 7.771c-40.828-.21-98.833 11.113-142.65 57.45l1.094 2.427c16.886-16.524 35.227-25.29 53.44-34.734-6.114 6.184-13.696 12.532-21.861 18.945 13.674-1.941 25.195-12.493 37.65-19.31-13.144 10.557-25.735 21.636-39.322 27.984 22.804-3.176 61.833-30.127 86.441-37.547 7.283-2.196 12.983-3.322 19.654-4.701-7.748-1.118-21.37-.075-49.806 11.297 15.568-9.652 38.98-18.732 97.44-16.465-9.365-2.898-23.523-5.25-42.08-5.346zm78.626 14.674c19.185 4.582 40.553 14.575 56.68 26.4-14.027-13.968-20.935-17.626-31.346-21.55-8.515-3.21-17.739-4.48-25.334-4.85zm-103.055 1.592c-35.244 14.335-74.642 54.264-109.925 46.545-5.348-1.17-8.115 5.227-3.264 6.527 17.82 4.775 42.504.699 60.459-14.256 17.636-14.689 32.285-23.12 52.73-38.816zm15.069 5.748a88.63 88.63 0 00-8.543.433c-13.73 5.039-20.012 10.077-28.168 15.116 19.768-6.706 39.417-10.188 59.086-14.256-7.61-.31-14.345-1.32-22.375-1.293zm72.797 2.48a41.44 41.44 0 00-10.059 1.389c-22.159 5.937-39.167 13.465-61.662 7.73 15.653 9.106 32.252 6.058 61.318-.687 22.32-5.18 40.996 2.187 59.256 10.992-12.987-8.985-30.756-19.731-48.853-19.424zm49.884 8.26c22.552 20.072 42.262 42.716 56.53 70.283.15-1.402.023-2.853-.045-4.244a34.694 34.694 0 00-.453-3.213c-3.413-10.694-8.469-19.778-16.184-29.334-13.079-16.2-29.332-27.653-39.848-33.492zm-60.554 6.356l21.133 7.529c-14.875 1.955-26.97 9.398-39.35 16.275 14.736-6.42 29.473-9.245 44.209-9.717-29.116 3.947-48.755 14.075-68.018 24.448 6.897-.811 13.807-1.589 20.657-2.207 1.437-.127 2.9-.231 4.355-.344a65.83 65.83 0 014.14-1.979c19.203-8.347 29.947-17.978 74.815 1.457-30.492-6.227-45.649-3.672-54.969-.357 13.574.228 27.428 1.97 40.19 6.887 18.954 1.002 39.813 11.529 61.174 24.562-1.563-3.778-2.967-8.464-7.532-11.902-8.582-6.465-17.163-9.997-25.746-14.33-16.283-21.487-40.683-35.897-75.058-40.322zm-209.522 3.085c-3.318 1.554-6.54 3.319-9.535 5.436-3.838 2.687-7.512 5.62-10.937 8.818-4.56 4.318-8.065 9.786-9.791 15.842-1.265 4.232-1.59 8.66-2.286 13.004 1.847-2.056 3.642-4.162 5.47-6.236 5.298-14.09 16.568-25.48 28.706-36.477l-.08-.224zm99.348 11.686c8.915 9.92 21.59 13.822 35.039 16.488-31.373-.929-37.255-7.073-49.81-11.851l-7.557 6.527c.065.03.13.055.195.084.283-.196.569-.388.848-.59-.253.213-.515.415-.772.623 40.859 18.135 79.48 16.532 115.323-9.564-29.941 7.133-60.17 12.333-93.266-1.717zm-96.791 17.121c-1.315.082-4.09.964-6.264 2.46-16.33 11.232-13.831 32.614-14.428 46.546 3.57-14.472 8.172-33.352 19.834-40.98 4.937-3.23 4.802-8.27.858-8.026zm-1.627 18.947s-8.794 9.807-10.992 15.631c-2.894 7.667-2.576 24.217-2.576 24.217 2.916-13.282 6.36-26.565 13.568-39.848zm4.217 10.371c-10.82 18.383-16.309 40.16-40.936 49.756.538 1.704 1.109 3.4 1.62 5.102-.005.422.002.845 0 1.267 9.458-5.076 18.764-11.975 27.954-20.263-6.983 22.442-17.397 28.304-27.86 33.922.124 7.196.336 14.39.558 21.584 2.673-.376 5.367-.72 8.072-.518l2.053.072c-.614-3.525-1.167-7.063-1.909-10.564.987 2.836 1.543 5.802 2.21 8.725 1.875 8.716 2.852 17.601 3.605 26.439.322 3.236.482 6.492.875 9.719.81 3.571 3.039 6.655 5.56 9.236 1.803 1.794 3.846 3.319 5.77 4.977.39-8.352.45-16.714.273-25.073-.2-11.683-.67-23.369-.355-35.054.122-2.55.073-5.254.504-7.83 1.172-6.397 3.863-12.364 5.707-18.573.912-2.921 1.902-5.837 3.172-8.617 1.633-11.635 1.549-23.406 2.26-35.111.209-3.069.485-6.14.867-9.195zm295.949 3.887c-.5 11.09 2.296 22.731 7.287 34.737-12.72-15.62-18.927-23.966-27.61-26.766.14 4.771.412 9.535.897 14.285 11.471 10.399 16.71 24.803 25.742 36.77-7.195-3.548-14.714-9.361-22.25-15.288a225.736 225.736 0 001.797 7.567c1.573 5.705 4.147 11.083 5.903 16.719.022 11.747.304 23.497.003 35.244-.06 1.986-.122 4.175-.228 6.238-.274 6.121-.763 12.147-1.563 18.236-.253 1.932-.551 3.859-.828 5.788 2.087-.239 4.36-.143 6.145-1.434 3.213-2.163 4.9-5.876 6.035-9.455 1.293-4.015 1.418-8.263 1.856-12.424.834-9.255 1.398-18.604 3.769-27.629a86.52 86.52 0 011.025-3.615c.468-1.36.764-2.804 1.53-4.04-.417 2.627-1.175 5.186-1.63 7.807-.367 1.895-.71 3.797-1.068 5.694 2.445-.684 4.888-1.572 7.465-1.49.883-.01 1.757.139 2.635.209 1.76-12.53 2.173-25.187 3.078-37.793.05-1.173.196-2.33.631-3.428 1.161-3.936 2.554-7.851 3.01-11.95a93.53 93.53 0 00.013-3.708c-9.745-6.427-18.37-15.054-23.644-30.274z"/><path fill="#d1795f" d="M-398.928 453.242a2.42 2.42 0 00-.705.201c-11.58 5.345-7.565 27.413-4.445 39.78 3.462 13.72 9.902 28.53 21.277 35.793 3.455 2.205 10.201-2.332 10.201-2.332s-6.807-46.359-7.625-46.791c-3.122-1.653-11.146-20.41-9.447-19.924 0 0-5.587-7.198-9.256-6.727zm342.916 0c-3.668-.47-9.256 6.727-9.256 6.727 1.7-.486-6.325 18.271-9.447 19.924-.817.432-7.625 46.79-7.625 46.79s6.747 4.538 10.201 2.333c11.376-7.263 17.816-22.072 21.278-35.793 3.12-12.367 7.135-34.435-4.446-39.78a2.4 2.4 0 00-.705-.2z"/><path color="#000" d="M-218.293 190.64c-34.362.117-64.052 6.511-88.018 16.776-37.174 15.922-62.272 43.99-67.306 68.527-6.306 2.67-12.833 7.097-20.121 13.27-7.853 6.651-14.915 15.966-16.707 29.517-.934 7.056-.617 12.764 1.1 15.737-3.42 13.508-8.19 32.318-6.895 48.256.424 5.22 1.743 10.811 3.412 14.328.405 12.385.56 24.8.691 37.25-6.557 4.345-11.391 12.842-12.12 25.955-1.22 21.903 2.213 38.638 10.435 58.201 5.488 13.06 12.917 20.72 22.037 32.508 3.395 4.388 8.19 5.853 12.26 6.51 1.17.189 2.288.34 3.373.478-.538 6.136-1.104 12.344-1.559 18.287-.187 2.444 2.595 6.095 5.33 5.207-1.164 5.118.205 17.34 3.303 28.846 2.886 10.718 13.915 28.356 23.402 38.277-.958.326-1.94.67-2.955 1.055-6.059 2.3-13.095 4.94-16.633 11.451-3.291 6.058-3.28 11.758-2.47 15.93.809 4.171 1.77 6.829 1.566 8.883-.421 4.238-1.137 4.439-2.877 5.105-1.74.667-5.29.74-9.326.787-24.24.286-38.412 17.748-38.412 17.748l7.965 6.047s10.339-13.556 30.566-13.795c3.707-.043 8.172.319 12.783-1.447 4.611-1.766 8.583-6.72 9.252-13.457.5-5.038-1.121-8.787-1.701-11.775-.58-2.989-.76-5.202 1.44-9.25.673-1.24 6.073-4.857 11.396-6.877a87.485 87.485 0 019.908-3.082c.159.017.321.05.473.05 3.777 6.73 8.816 15.275 17.285 22.395 2.557 2.149 8.865 4.84 10.203 1.781 8.757 9.831 17.782 16.217 27.447 19.307 2.176.67 4.45.829 5.647-1.108 9.944 8.269 30.529 17.461 46.564 17.461 16.036 0 41.437-10.927 50.59-19.44 10.356 9.797 39.811-20.747 43.533-27.9 1.856 1.098 2.282 1.924 3.907.508 5.326-4.642 9.537-8.291 13.09-12.125a85.803 85.803 0 016.498 2.153c5.322 2.02 10.722 5.637 11.396 6.877 2.2 4.048 2.02 6.261 1.44 9.25-.58 2.988-2.202 6.737-1.702 11.775.67 6.738 4.641 11.691 9.252 13.457 4.611 1.766 9.076 1.404 12.783 1.447 20.228.239 28.931 13.795 28.931 13.795l9.904-4.047s-14.475-19.462-38.715-19.748c-4.037-.047-7.586-.12-9.327-.787-1.74-.666-2.455-.867-2.877-5.105-.204-2.054.758-4.712 1.567-8.883.809-4.172.82-9.872-2.47-15.93-3.539-6.511-10.574-9.151-16.634-11.451a89.721 89.721 0 00-3.578-1.266 60.893 60.893 0 003.426-6.435c-.043 2.214.803 4.671 2.984 4.125 14.81-3.712 20.408-44.913 19.932-62.944l4.22-5.355c.918-1.164 1.335-2.643 1.065-4.1-.95-5.131-1.802-10.325-2.467-15.384 1.818-.21 3.82-.446 5.96-.791 4.07-.657 8.864-2.122 12.26-6.51 9.119-11.787 16.548-19.448 22.036-32.508 8.222-19.563 11.655-36.298 10.436-58.201-.777-13.954-6.2-22.683-13.403-26.742a23.432 23.432 0 00-1.14-.596c1.91-12.493 2.618-25.325 2.847-38.543 2.487-5.013 3.851-11.155 3.905-16.057.12-10.88-.05-16.91-1.49-24.468 2.036-2.425 2.822-5.475 3.232-8.391.552-3.92.276-7.979-.88-11.637-4.005-12.659-4.512-23.88-19.481-48.148.98.571 1.951 1.14 2.513 1.607 1.946 1.617 4.834 2.125 2.383-2.816-9.117-18.377-45.028-63.164-105.217-76.809 1.805-.386 15.237-1.527 17.018-1.777 2.964-.416 3.21-1.664.164-3.598-2.654-1.685-9.404-4.014-11.957-4.549-23.756-4.972-46.055-7.161-66.672-7.091zm2.51 10.173c11.416.037 23.382.79 35.845 2.378-4.616 1.088-9.36 1.848-13.818 3.35-6.205 2.091-4.225 3.808 2.41 3.893 7.955.101 16.262 2.786 23.018 4.226 50.21 10.708 80.724 38.306 99.592 60.45-3.117-2.61-6.577-5.94-9.328-7.79-2.998-2.014-5.25-1.757-1.229 2.625 17.785 19.382 28.791 48.387 32.713 66.893.409 1.93.705 4.856.514 7.226-.288 3.557-3.027 3.055-2.897 7.165.277 8.765.97 15.062 1.057 27.162.022 3.135-2.057 9.323-3.498 14.093-.79 8.196-1.241 24.88-3.004 37.893-.013 0-.026-.003-.04-.004-1.819-.118-4.945.16-6.613.994l-1.134 9.565c4.99-1.681 10.834-2.126 14.25.814 3.482 2.997 7.587 7.262 8.244 19.064 1.152 20.698-2.033 35.46-9.83 54.014-4.715 11.219-11.22 17.978-20.725 30.262-1.642 2.122-3.226 2.717-5.945 3.156-1.56.252-3.503.248-5.617.309-.493-7.23-.29-13.758 1.115-18.74 5.759-20.429 8.878-32.506 10.123-48.838.21-2.754-1.35-3.264-4.084-3.649-2.734-.385-5.262-.482-5.649 2.252-1.854 17.366-6.243 34-10.423 50.54-1.736 6.865.2 27.5 3.066 43.722l-4.236 4.11c-.918.89-1.356 2.26-1.137 3.52 1.271 7.298-.374 32.518-8.453 47.985.261-2.664.321-5.812.166-6.664-.431-2.367-2.19-3.22-3.768.555-4.35 10.41-10.882 21.848-22.683 32.146.588-4.053.66-6.54.843-9.365.408-6.277-3.25-7.753-4.796-1.656-3.81 15.02-23.187 40.839-38.645 44.244l.309-6.73c.218-4.753-2.468-2.929-5.649.609-12.844 14.285-38.18 23.591-51.836 23.591-13.655 0-46.411-14.988-53.56-24.56-2.988-4-6.576-2.778-4.065 2.559l2.428 5.158c-9.606-5.774-20.482-18.128-24.805-25.84-2.329-4.156-4.631-2.433-4.42.283l.567 7.274c-10.347-10.35-16.873-20.144-20.666-31.47-.97-2.896-3.392-2.405-3.455.233l-.125 5.205c-13.766-13.5-21.513-28.738-24.25-37.408-3.506-11.105-2.387-18.682-3.57-29.976-.22-2.091-2.245-3.881-4.747-4.471 1.653-8.02 4.9-36.393 2.795-46.75-4.549-16.625-6.176-30.782-8.123-46.844-.348-2.464-2.115-2.297-5.08-2.082-2.964.216-4.867.745-4.482 3.479 2.11 14.968 2.085 28.436 8.531 49.015.084 5.302-.27 11.687-.783 18.475-1.013-.035-1.975-.087-2.807-.22-2.72-.44-4.304-1.035-5.945-3.157-9.504-12.284-16.01-19.043-20.725-30.262-7.797-18.554-10.982-33.316-9.83-54.013.657-11.803 4.762-16.068 8.244-19.065 3.416-2.94 9.26-2.495 14.25-.814l-2.492-10.471a33.603 33.603 0 00-5.256-.088c-.77.05-1.55.136-2.336.252-.363-11.547-.693-23.102-.584-34.521-1.14-4.126-3.324-8.823-3.422-14.106-.302-16.375 2.812-30.906 6.856-46 1.426-5.323 8.344-18.848 10.84-23.605 1.207-2.302-.239-3.43-2.569-1.557-3.439 2.763-5.616 5.223-9.15 9.285 1.455-10.998 6.413-17.685 13.016-23.277 4.773-4.043 10.438-8.433 16.72-11.291.939 2.566 1.132 3.762 2.846 6.177 2.978 4.197 3.128.742 2.875-2.04-.314-3.448.42-7.395.522-8.061 3.379-22.253 26.153-50.142 61.939-65.02 23.029-9.574 52.34-15.908 86.59-15.797z" style="mix-blend-mode:normal;solid-color:#000;solid-opacity:1"/><path fill="#64221c" d="M-403.363 449.186c-2.091-.093-3.097 1.19-1.346 2.2 4.28 2.472 8.53 6.656 12.795 12.223-2.998 1.731-6.082 10.283-7.21 18.393-1.039 7.483.74 14.264 5.073 19.578-1.955-5.126-3.316-9.975-2.426-17.383.66-5.487 4.088-14.666 7.51-16.435l-1.074-8.13c-3.44-4.126-5.27-6.42-9.955-9.312-1.241-.766-2.417-1.092-3.367-1.134zm352.496 0c-.95.042-2.126.368-3.367 1.134-4.686 2.892-6.516 5.186-9.955 9.313l-1.075 8.129c3.422 1.77 6.85 10.948 7.51 16.435.89 7.408-.47 12.257-2.426 17.383 4.334-5.314 6.113-12.095 5.073-19.578-1.128-8.11-4.212-16.662-7.21-18.393 4.266-5.567 8.515-9.75 12.796-12.222 1.75-1.011.745-2.294-1.346-2.201zM-395.04 515.79c2.987 5.077 5.811 11.976 12.795 14.857 3.482 1.438 6.71-.971 8.59-2.232l-.516-2.92c-1.843 1.332-4.804 3.533-8.63 1.76-6.77-3.137-8.289-7.386-12.24-11.465zm335.848 0c-3.95 4.08-5.47 8.328-12.239 11.465-3.827 1.773-6.788-.428-8.63-1.76l-.516 2.92c1.879 1.261 5.107 3.67 8.59 2.232 6.983-2.881 9.808-9.78 12.795-14.857z"/><path color="#000" d="M-298.47 307.148c-23.684 13.674-40.92 12.968-57.25 8.723-.775-.201-5.381-1.97-6.605-2.677-1.693-.977-1.686.384-.943 1.659.827 1.419 1.712 2.575 3.178 3.649-4.736 5.654-6.632 15.014-7.8 25.975-1.317 12.347-.746 26.558-2.726 40.892-2.031 4.241-3.302 9.515-5.288 15.016-2.061 5.708-3.7 11.017-3.909 14.832-1.077 19.64.843 41.624.008 61.61-1.39-1.116-2.743-2.378-3.898-3.755-2.138-2.548-3.553-5.365-3.719-7.351-1.35-16.182-2.171-27.491-5.988-42.361-.344-1.338-1.891-6.44-3.804-6.077-1.975.374-.645 5.251-.387 6.608 2.907 15.31 3.758 26.139 5.199 42.273.325 3.644 2.315 7.077 4.869 10.121 2.554 3.044 5.73 5.68 8.937 7.37 1.602.843 3.542-.243 3.66-2.05 1.424-21.717-1.008-45.63.116-66.115.136-2.474 1.624-7.881 3.619-13.406s4.469-7.988 5.694-17.487c1.244-9.462 1.473-27.159 2.59-39.591 1.023-11.399 3.831-20.163 7.5-23.947 16.337 3.984 34.724 4.123 57.956-8.809a52.719 52.719 0 005.717 3.887c13.362 9.673 33.794 14.905 54.121 16.627 24.048 2.037 45.16-.079 57.43-5.033.769-.31 3.064-1.665 2.753-2.434-.31-.769-3.333-.138-4.117.132-11.616 4-50.163 4.347-57.706.7 12.57-1.161 23.038-2.854 42.406-5.012 38.387-4.277 76.958-6.52 104.207 19.14 0 18.75.139 33.038 5.512 55.23 1.678 6.932 3.971 11.624 6.5 18.923-.032 21.466.901 42.595-2.69 64.055a2.5 2.5 0 001.799 2.822c2.804.776 5.522.475 7.74-.615 2.218-1.09 3.924-2.86 5.256-4.848 2.663-3.975 3.969-8.912 4.418-12.851 1.776-15.582 2.351-26.687 5.666-40.38.324-1.34 1.064-5.503-.24-5.955-1.304-.453-3.41 2.9-3.862 4.204-5.079 14.641-4.793 26.317-6.53 41.564-.372 3.261-1.627 7.684-3.604 10.635-.989 1.475-2.124 2.56-3.309 3.143a5.248 5.248 0 01-2.092.521c3.237-21.358 2.29-42.673 2.267-63.705-2.744-8.217-4.878-12.157-6.46-18.691-5.038-20.806-5.758-34.102-5.775-51.612 4.362 4.557 7.01 8.153 8.491 12.477 1.798 5.243 3.595 2.74 2.898-1.147-1.077-6.003-9.908-16.511-10.395-16.982-29.093-28.154-71.447-25.231-110.35-20.897-19.451 2.168-38.176 5.09-55.1 4.706-15.895-.361-30.078-3.61-41.023-11.802 4.741-3.675 9.12-7.992 11.134-11.833 1.219-2.325 1.398-4.685-1.75-1.811-2.063 1.882-5.963 6.914-14.322 11.74z" style="mix-blend-mode:normal;solid-color:#000;solid-opacity:1"/><path fill="#534c43" d="M-310.443 395.756c-7.334.088-13.526 3.15-19.424 8.125-5.401 4.556-11.336 13.19-13.258 20.363-.975 3.639.153 5.687 2.232 3.608 4.088-4.088 17.16-13.178 28.168-13.915 15.262-1.02 29.218 3.723 43.352 7.344 2.8.718 9.266 3.533 10.71 1.03 1.836-3.179 1.801-10.755-2.009-13.102-14.173-8.73-30.789-11.696-46.557-13.305a28.308 28.308 0 00-3.214-.148zm165.925 0a28.306 28.306 0 00-3.214.148c-15.768 1.609-32.382 4.574-46.555 13.305-3.81 2.347-3.845 9.923-2.01 13.102 1.445 2.503 7.91-.312 10.711-1.03 14.134-3.62 28.088-8.364 43.35-7.344 11.007.737 24.08 9.827 28.168 13.915 2.079 2.079 3.21.031 2.234-3.608-1.922-7.174-7.859-15.807-13.26-20.363-5.898-4.976-12.09-8.037-19.424-8.125z"/><path fill="#323131" color="#000" style="mix-blend-mode:normal;solid-color:#000;solid-opacity:1" d="M-379.932 439.416a7.5 7.5 0 100 15h9.116v-15zm300.5 0v15h9.116a7.5 7.5 0 100-15zm-145.691 10.957c-11.365 0-18.412 4.186-18.43 4.195.043 4.403-.104 8.617-.547 12.569 2.414 1.72 5.128 1.858 7.68.351 0 0 3.155-2.115 11.297-2.115 8.142 0 11.295 2.115 11.295 2.115 2.552 1.507 5.266 1.37 7.68-.351-.443-3.952-.59-8.166-.547-12.569-.018-.01-7.063-4.195-18.428-4.195z"/><path fill="#fff" d="M-311.52 419.63c-14.784.005-30.303.769-44.44 4.975-8.944 2.662-16.437 7.546-16.26 16.999.021 1.162.053 2.198.077 3.312h-9.666a2 2 0 00-2 2 2 2 0 002 2h9.762c.541 18.516 2.095 30.751 10.633 48.807 2.25 4.76 6.636 6.17 15.793 8.619 19.628 5.25 43.965 5.8 67.549.19 8.177-1.946 18.806-7.54 25.455-12.989 7.813-6.403 11.118-16.69 12.144-29.023a3.5 3.5 0 002.02-.477s4.325-2.67 13.33-2.67c9.005 0 13.328 2.67 13.328 2.67a3.5 3.5 0 002.02.477c1.026 12.333 4.331 22.62 12.144 29.023 6.648 5.448 17.278 11.043 25.455 12.988 23.584 5.61 47.921 5.061 67.549-.19 9.157-2.449 13.542-3.859 15.793-8.618 8.538-18.056 10.092-30.291 10.633-48.807h9.762a2 2 0 002-2 2 2 0 00-2-2h-9.666c.024-1.114.056-2.15.078-3.312.176-9.453-7.317-14.337-16.26-16.999-14.138-4.206-29.657-4.97-44.442-4.974-18.03-.005-37.627 1.11-54.96 7.515-9.732 3.597-15.967 10.673-16.344 20.928a168.671 168.671 0 00-.098 9.069c-2.599-1.077-7.79-2.77-14.992-2.77-7.202 0-12.395 1.693-14.994 2.77.05-2.947.016-5.97-.098-9.069-.377-10.255-6.612-17.331-16.344-20.928-17.333-6.405-36.93-7.52-54.96-7.515zm1.5 4.016c16.743-.005 34.938 1.008 51.032 6.815 9.036 3.26 14.482 9.676 14.832 18.975.665 17.674-.877 32.988-11.172 41.226-6.173 4.94-16.044 10.012-23.637 11.776-21.897 5.086-43.634 5.104-61.86.343-8.501-2.22-13.946-6.59-16.036-10.906-8.93-18.44-8.092-25.676-8.489-46.416-.163-8.57 6.106-14.888 14.41-17.3 13.127-3.815 27.193-4.509 40.92-4.513zm169.791 0c13.728.004 27.794.698 40.92 4.512 8.305 2.413 14.574 8.73 14.41 17.301-.396 20.74.442 27.976-8.488 46.416-2.09 4.316-7.535 8.686-16.037 10.906-18.225 4.76-39.962 4.743-61.86-.344-7.592-1.763-17.463-6.835-23.636-11.775-10.295-8.238-11.837-23.552-11.172-41.226.35-9.299 5.796-15.714 14.832-18.975 16.094-5.807 34.29-6.82 51.031-6.815z"/><path fill-opacity=".3" color="#000" d="M-342.62 248.947a1 1 0 00-.722.324c-17.232 18.758-15.905 34.287-15.799 46.211a1 1 0 101.983.262c-.046-10.927-1.54-26.799 15.29-45.121a1 1 0 00-.751-1.676zm161.247 3.645c-38.859.448-65.953 10.274-91.2 32.547a1 1 0 001.305 1.517c25.305-21.766 56.229-30.15 90.008-32.066a1 1 0 00-.113-1.998zm-190.871 46.394a.999.999 0 00-.602.205c-16.243 12.394-19.285 24.724-20.783 37.303a1.001 1.001 0 101.973.34c2.096-12.217 4.218-23.994 20.023-36.053a1 1 0 00-.611-1.795zm3.387 10.688c-.02 0-.038 0-.057.002-3.83.29-7.365 1.527-10.043 3.979-2.677 2.452-4.531 6.11-6.539 9.642a1 1 0 001.738.988c1.956-3.44 4.064-6.499 6.496-8.726 2.432-2.228 5.154-3.635 8.5-3.889a1 1 0 00-.095-1.996zm-1.42 19.19a1.002 1.002 0 00-.606.189c-10.277 7.467-16.31 16.649-15.959 34.593a1 1 0 102-.039c-.303-15.46 5.317-25.8 15.135-32.935a1 1 0 00-.57-1.809z" style="mix-blend-mode:normal;solid-color:#000;solid-opacity:1"/><path color="#000" d="M-266.107 710.328a1.5 1.5 0 00-1.364.916 1.5 1.5 0 00.797 1.965c12.101 5.12 23.463 10.737 39.656 15.953-2.153 1.474-4.27 3.106-6.326 5.004a1.5 1.5 0 00-.084 2.12 1.5 1.5 0 002.12.085c12.531-11.57 27.878-13.615 42.55-23.164a1.5 1.5 0 00.44-2.076 1.5 1.5 0 00-1.31-.68 1.5 1.5 0 00-.767.24c-10.762 7.005-22.487 9.877-33.367 16.381a1.5 1.5 0 00-.103-.037c-17.227-5.35-28.858-11.18-41.64-16.588a1.5 1.5 0 00-.602-.119z" style="mix-blend-mode:normal;solid-color:#000;solid-opacity:1"/><path color="#000" d="M-329.629 657.672c-4.379 1.73-6.694 4.081-7.799 5.236-1.015 1.061-2.425 3.097-2.271 5.887.153 2.79 1.883 5.707 5.445 8.494 13.368 10.46 35.218 21.344 56.527 32.281 21.45 11.01 40.19 24.424 48.186 41.432 0 0 .753.281 1.146.281.394 0 1.147-.281 1.147-.281 7.996-17.008 27.683-29.27 48.299-41.772 19.587-11.876 42.466-22.355 57.435-31.94 3.81-2.44 6.167-5.705 6.32-8.495.154-2.79-1.255-4.826-2.27-5.887-1.106-1.155-4.862-3.506-9.241-5.236l-2.205 5.58c3.449 1.363 4.702 2.447 5.838 3.635.331.346.65.812.617 1.408-.033.596-.775 2.151-3.55 4.27-10.705 8.168-31.668 19.066-55.917 31.85-21.534 11.351-39.86 26.692-46.242 45.583h-.461c-6.381-18.891-24.211-34.652-46.129-45.244-24.374-11.779-44.48-22.622-55.01-32.19-2.584-2.348-3.516-3.673-3.548-4.27-.033-.595.285-1.06.617-1.407 1.136-1.188 1.822-2.272 5.271-3.635zm-31.342 34.664c-1.239 1.038-2.958 3.027-2.771 5.756.187 2.729 1.569 7.04 5.916 9.765 16.312 10.23 43.703 19.66 69.705 30.356 26.173 10.767 49.04 16.55 58.797 33.183 0 0 .761 1.506 1.398 1.368 1.262-.274 1.4-3.61 1.4-3.61 9.758-16.633 34.32-20.546 60.151-31.273 23.901-9.926 50.239-20.66 68.87-31.48 4.517-2.624 7.525-5.58 7.712-8.31.187-2.728-1.532-4.717-2.771-5.755l-2.211-1.082c-.237.11-3.568 2.868-4.16 5.078-.152.564-3.034 4.104-6.42 6.176-13.062 7.989-36.273 17.069-65.862 29.57-26.276 11.102-48.641 17.618-56.428 36.094l-.562 2.242c-7.787-18.475-29.542-27.16-56.287-37.52-29.742-11.519-54.398-21.15-67.246-30.507-3.153-2.297-7.003-4.216-7.003-10.305z" style="mix-blend-mode:normal;solid-color:#000;solid-opacity:1"/><circle stroke-linejoin="round" stroke-linecap="round" stroke-width="3.987" stroke="#000" fill="none" r="6.29" cy="740.417" cx="-257.823"/><path paint-order="stroke fill markers" stroke-linecap="round" stroke-width="5.98" stroke="#000" fill="#e9e9f2" color="#000" d="M-257.608 740.214a1.5 1.5 0 00-.492.088 1.5 1.5 0 00-.908 1.918c4.046 11.318 4.303 17.372 5.527 25.402a1.5 1.5 0 001.709 1.258 1.5 1.5 0 001.256-1.71c-1.2-7.866-1.518-14.356-5.666-25.96a1.5 1.5 0 00-1.426-.996z" style="mix-blend-mode:normal;solid-color:#000;solid-opacity:1"/><circle stroke-linejoin="round" stroke-linecap="round" stroke-width="3.987" stroke="#000" fill="none" transform="scale(-1 1)" cx="188.954" cy="736.417" r="6.29"/><path paint-order="stroke fill markers" stroke-linecap="round" stroke-width="5.98" stroke="#000" fill="#e9e9f2" color="#000" style="mix-blend-mode:normal;solid-color:#000;solid-opacity:1" d="M-189.654 735.728a1.5 1.5 0 01.492.088 1.5 1.5 0 01.908 1.918c-4.047 11.319-4.303 17.373-5.527 25.402a1.5 1.5 0 01-1.71 1.258 1.5 1.5 0 01-1.255-1.709c1.2-7.867 1.517-14.357 5.666-25.96a1.5 1.5 0 011.426-.997z"/><path style="line-height:normal;font-variant-ligatures:normal;font-variant-position:normal;font-variant-caps:normal;font-variant-numeric:normal;font-variant-alternates:normal;font-variant-east-asian:normal;font-feature-settings:normal;font-variation-settings:normal;text-indent:0;text-align:start;text-decoration-line:none;text-decoration-style:solid;text-decoration-color:#000;text-transform:none;text-orientation:mixed;white-space:normal;shape-padding:0;shape-margin:0;inline-size:0;isolation:auto;mix-blend-mode:normal;solid-color:#000;solid-opacity:1" d="M-149.597 475.215c-11.97.606-26.287-1.157-42.865-7.958-5.506-2.258-5.812-4.099-5.923-5.26-.11-1.16 3.636-1.682 8.266.175 21.165 8.488 37.635 8.738 50.478 6.262 12.842-2.477 21.972-7.716 28.61-10.747 1.478-.674 3.274-.106 4.01 1.269.738 1.373.14 3.035-1.337 3.71-6.098 2.784-16.094 8.51-30.028 11.197a80.707 80.707 0 01-11.211 1.352zM-304.503 475.215c11.97.606 26.287-1.157 42.865-7.958 5.506-2.258 5.812-4.099 5.923-5.26.11-1.16-3.636-1.682-8.266.175-21.165 8.488-37.635 8.738-50.478 6.262-12.842-2.477-21.972-7.716-28.61-10.747-1.478-.674-3.274-.106-4.01 1.269-.738 1.373-.14 3.035 1.337 3.71 6.098 2.784 16.094 8.51 30.028 11.197a80.707 80.707 0 0011.211 1.352z" color="#000" font-weight="400" font-family="sans-serif" overflow="visible"/></g></svg>