<svg xmlns="http://www.w3.org/2000/svg" width="30" height="30" viewBox="0 0 30 30">
  <defs>
    <style>
      .a {
        fill: none;
      }

      .a, .b {
        stroke: #000;
        stroke-linecap: round;
        stroke-linejoin: round;
      }

      .b {
        fill: #467cd9;
        fill-opacity: 0.5;
      }
    </style>
  </defs>
  <title>progeo-3d-plane</title>
  <g>
    <polygon class="a" points="20 10 4 10 10 4 26 4 20 10"/>
    <polygon class="a" points="20 26 4 26 10 20 26 20 20 26"/>
    <polygon class="a" points="10 20 4 26 4 10 10 4 10 20"/>
    <rect class="a" x="10" y="4" width="16" height="16"/>
    <polygon class="b" points="20 18 4 18 10 12 26 12 20 18"/>
    <rect class="a" x="4" y="10" width="16" height="16"/>
    <polygon class="a" points="26 20 20 26 20 10 26 4 26 20"/>
  </g>
</svg>
