<svg xmlns="http://www.w3.org/2000/svg" width="40" height="40" viewBox="0 0 40 40">
  <defs>
    <style>
      .a {
        fill: #467cd9;
      }

      .b, .c {
        fill: none;
        stroke-linecap: round;
        stroke-linejoin: round;
      }

      .b {
        stroke: #000;
      }

      .c {
        stroke: #cc0911;
      }
    </style>
  </defs>
  <title>progeo-hide</title>
  <g>
    <path class="a" d="M13,16.6V17a7,7,0,0,0,7,7h.4Z"/>
    <path class="a" d="M25.2,21.7A7.2,7.2,0,0,0,27,17a6.7,6.7,0,0,0-.9-3.4A13.8,13.8,0,0,0,20,12a12.1,12.1,0,0,0-3.8.6Z"/>
    <path class="b" d="M13,17.3A7,7,0,0,0,19.7,24"/>
    <path class="b" d="M25.5,21.3A7.2,7.2,0,0,0,27,17a6.7,6.7,0,0,0-.9-3.4"/>
    <path class="b" d="M11,15.3A29.2,29.2,0,0,0,6,20s6.3,8,14,8a12.6,12.6,0,0,0,3.3-.5"/>
    <path class="b" d="M29,24.7A29.2,29.2,0,0,0,34,20s-6.3-8-14-8a12.6,12.6,0,0,0-3.3.5"/>
    <line class="c" x1="6" y1="6" x2="34" y2="34"/>
  </g>
</svg>
