<svg xmlns="http://www.w3.org/2000/svg" width="30" height="30" viewBox="0 0 30 30">
  <defs>
    <style>
      .a {
        opacity: 0.5;
      }

      .b {
        fill: none;
      }

      .b, .c {
        stroke: #000;
        stroke-linecap: round;
        stroke-linejoin: round;
      }

      .c {
        fill: #467cd9;
        fill-opacity: 0.5;
      }
    </style>
  </defs>
  <title>progeo-3d-plane-soft</title>
  <g class="a">
    <polygon class="b" points="20 10 4 10 10 4 26 4 20 10"/>
    <polygon class="b" points="20 26 4 26 10 20 26 20 20 26"/>
    <polygon class="b" points="10 20 4 26 4 10 10 4 10 20"/>
    <rect class="b" x="10" y="4" width="16" height="16"/>
    <polygon class="c" points="20 18 4 18 10 12 26 12 20 18"/>
    <rect class="b" x="4" y="10" width="16" height="16"/>
    <polygon class="b" points="26 20 20 26 20 10 26 4 26 20"/>
  </g>
</svg>
