<svg xmlns="http://www.w3.org/2000/svg" width="30" height="30" viewBox="0 0 30 30">
  <defs>
    <style>
      .a {
        opacity: 0.5;
      }

      .b {
        fill: #467cd9;
      }

      .c {
        fill: none;
        stroke: #000;
        stroke-linecap: round;
        stroke-linejoin: round;
      }
    </style>
  </defs>
  <title>progeo-rotate-soft</title>
  <g class="a">
    <circle class="b" cx="15" cy="15" r="4"/>
    <g>
      <path d="M6.5,22.5c-.1,0-.2,0-.3-.2S6,22.1,6,22a.8.8,0,0,1,.2-.4.8.8,0,0,1,.7,0A.6.6,0,0,1,7,22v.2H6.9l-.2.2Z"/>
      <path d="M14.8,26a.5.5,0,0,1,.5-.5h0a.5.5,0,0,1,.5.5h0a.5.5,0,0,1-.5.5h0A.5.5,0,0,1,14.8,26Z"/>
      <path d="M13.3,26.4a.6.6,0,0,1-.5-.6h0c.1-.3.3-.5.6-.4h0a.4.4,0,0,1,.4.6h0a.5.5,0,0,1-.5.4Z"/>
      <path d="M16.8,25.9c0-.3.1-.6.4-.6h0a.5.5,0,0,1,.6.3h0a.7.7,0,0,1-.4.7h-.1A.7.7,0,0,1,16.8,25.9Z"/>
      <path d="M11.2,25.9a.6.6,0,0,1-.3-.7h0a.6.6,0,0,1,.7-.3h0a.8.8,0,0,1,.3.7h0a.5.5,0,0,1-.5.3h-.2Z"/>
      <path d="M18.8,25.4a.5.5,0,0,1,.2-.7h0a.5.5,0,0,1,.7.3h0a.4.4,0,0,1-.3.6h-.2A.4.4,0,0,1,18.8,25.4Z"/>
      <path d="M9.3,25a.6.6,0,0,1-.2-.7h0a.7.7,0,0,1,.7-.2h0a.5.5,0,0,1,.2.7h0c-.1.2-.2.3-.4.3H9.3Z"/>
      <path d="M20.6,24.5a.5.5,0,0,1,.1-.7h0c.2-.1.6-.1.7.2h0c.1.2.1.5-.1.6H21Z"/>
      <path d="M7.6,23.8a.6.6,0,0,1-.1-.7h0a.8.8,0,0,1,.8-.1h0a.6.6,0,0,1,0,.8H7.6Z"/>
      <path d="M22.2,23.3a.5.5,0,0,1,0-.7h0a.6.6,0,0,1,.7.1h0a.5.5,0,0,1,0,.7h-.4C22.4,23.5,22.3,23.5,22.2,23.3Z"/>
      <path d="M23.6,21.9a.4.4,0,0,1-.1-.7h0a.5.5,0,0,1,.7-.1h0a.6.6,0,0,1,.1.7h0l-.4.2h-.3Z"/>
      <path d="M24.7,20.2a.4.4,0,0,1-.3-.6h0a.6.6,0,0,1,.7-.3h0c.3.2.4.5.2.7h0c0,.2-.2.3-.4.3h-.2Z"/>
      <path d="M25.5,18.4c-.3-.1-.5-.3-.4-.6h0a.6.6,0,0,1,.6-.4h0a.6.6,0,0,1,.4.7h0a.5.5,0,0,1-.5.3h-.1Z"/>
      <path d="M25.9,16.5c-.3-.1-.5-.3-.4-.6h0c0-.3.2-.5.5-.4h0a.5.5,0,0,1,.5.5h0c-.1.3-.3.5-.5.5h-.1Z"/>
      <path d="M25.5,14c-.1-.3.1-.5.4-.5h0c.3-.1.5.1.5.4h0c.1.3-.1.5-.4.6h-.1A.5.5,0,0,1,25.5,14Z"/>
      <path d="M25.6,12.5h-.2l-.2-.2a.1.1,0,0,1-.1-.1v-.6h.7a.3.3,0,0,1,.1.2v.4c0,.1,0,.1-.1.1v.2Z"/>
    </g>
    <g>
      <path class="c" d="M5.2,20A10.6,10.6,0,0,1,4,15a11,11,0,0,1,20.8-5"/>
      <polyline class="c" points="19 10 25 10 25 4"/>
    </g>
  </g>
</svg>
