<svg xmlns="http://www.w3.org/2000/svg" width="30" height="30" viewBox="0 0 30 30">
  <defs>
    <style>
      .a {
        fill: none;
        stroke: #000;
        stroke-linecap: round;
        stroke-linejoin: round;
      }

      .b {
        fill: #467cd9;
      }
    </style>
  </defs>
  <title>progeo-edit</title>
  <g>
    <path class="a" d="M28,17.5v-5H25.7a9.7,9.7,0,0,0-1.4-3.3L26,7.6,22.4,4,20.8,5.7a9.7,9.7,0,0,0-3.3-1.4V2h-5V4.3A9.7,9.7,0,0,0,9.2,5.7L7.6,4,4,7.6,5.7,9.2a9.7,9.7,0,0,0-1.4,3.3H2v5H4.3a9.7,9.7,0,0,0,1.4,3.3L4,22.4,7.6,26l1.6-1.7a9.7,9.7,0,0,0,3.3,1.4V28h5V25.7a9.7,9.7,0,0,0,3.3-1.4L22.4,26,26,22.4l-1.7-1.6a9.7,9.7,0,0,0,1.4-3.3ZM15,22a7,7,0,1,1,7-7A7,7,0,0,1,15,22Z"/>
    <circle class="b" cx="15" cy="15" r="4.5"/>
  </g>
</svg>
