<svg xmlns="http://www.w3.org/2000/svg" width="408" height="112" viewBox="0 -0.3 408 112"><path style="line-height:normal;font-variant-ligatures:normal;font-variant-position:normal;font-variant-caps:normal;font-variant-numeric:normal;font-variant-alternates:normal;font-variant-east-asian:normal;font-feature-settings:normal;font-variation-settings:normal;text-indent:0;text-align:start;text-decoration-line:none;text-decoration-style:solid;text-decoration-color:#000;text-transform:none;text-orientation:mixed;white-space:normal;shape-padding:0;shape-margin:0;inline-size:0;isolation:auto;mix-blend-mode:normal;solid-color:#000;solid-opacity:1" d="M315.703 9.712a1.55 1.55 0 00-.66.134l-13.115 5.866c-1.119.5-1.243 2.038-.219 2.71l7.031 4.628v68.86c0 1.761-1.427 3.188-3.545 3.188-1.738 0-2.857 1.12-2.857 2.5a2.5 2.5 0 002.5 2.5h18.312a2.5 2.5 0 000-5h-2.736a3.187 3.187 0 01-3.187-3.187V78.425l3.857-3.858 9.69 12.194c5.309 6.68 4.024 8.337.064 8.337a2.5 2.5 0 100 5h22.687a2.5 2.5 0 000-5c-5.022 0-8.355-3.084-15-11.445L326.78 68.872l11.225-11.225c3.645-3.645 6.902-4.793 8.654-4.793h3.852a2.5 2.5 0 000-5h-20.688a2.5 2.5 0 000 5c3.778 0 2.572 3.331-1.254 7.157l-11.341 11.341v-60.09a1.55 1.55 0 00-1.524-1.55zm-182.765 2.795a2.5 2.5 0 00-2.5 2.5c0 1.38 1.119 2.5 2.28 2.5 3.372 0 6.282 2.91 6.282 6.5v64.59c0 3.59-2.91 6.5-6.748 6.5-1.629 0-2.748 1.119-2.748 2.5a2.5 2.5 0 002.5 2.5h32.172c9.858 0 30.101-5.454 30.101-26.77 0-7.94-4.102-18.124-17.754-21.781C186.622 45.369 188.8 37.145 188.8 31.25c0-11.129-11.824-18.744-26.549-18.744h-29.313zM12.8 15.159a2.55 2.55 0 100 5.102h3.447a6.5 6.5 0 016.5 6.5V86.8a6.5 6.5 0 01-6.5 6.5h-2.947a3.05 3.05 0 100 6.1l35.33-.002c25.894-.001 46.886-18.902 46.887-42.181 0-22.187-17.976-42.055-48.88-42.057l-33.837-.002zm143.574 2.348h2.875c7.036 0 18.385 4.74 18.385 14.986 0 14.296-10.827 17.264-18.385 17.264h-9.375v-25.75a6.5 6.5 0 016.5-6.5zM41.43 20.27c20.93 0 41.67 16.725 41.67 36.455 0 27.682-19.641 36.534-41.67 36.534-4.816 0-7.725-2.91-7.725-6.5V26.77c0-3.59 2.91-6.5 7.725-6.5zm71.53 6.643a6 6 0 00-6 6 6 6 0 006 6 6 6 0 006-6 6 6 0 00-6-6zm3.507 17.322a1.251 1.251 0 00-.533.125l-16.131 7.778c-.955.46-.94 1.824.025 2.263l9.2 4.186v30.011c0 3.59-2.91 6.5-6.803 6.5-1.684 0-2.803 1.12-2.803 2.5a2.5 2.5 0 002.5 2.5h21.305a2.5 2.5 0 002.5-2.5c0-1.38-1.12-2.5-2-2.5-3.09 0-6-2.91-6-6.5V45.485a1.25 1.25 0 00-1.26-1.25zm110.553 1.203c-14.721 0-26.656 12.744-26.657 28.227 0 15.483 10.975 28.035 26.657 28.035 9.697 0 17.67-4.804 22.35-12.127 4.614 7.324 12.505 12.127 22.202 12.127 15.683 0 26.873-12.552 26.873-28.035s-12.15-28.227-26.873-28.227c-9.266 0-17.422 5.05-22.199 12.653-4.84-7.603-13.086-12.653-22.353-12.653zm160.238.135c-1.212.11-1.965.946-2.192 1.902-1.85-.79-4.212-1.282-7.295-1.218-7.835.16-16.673 5.094-16.775 13.105-.123 9.64 3.703 13.991 15.479 17.147 10.181 2.728 13.173 5.948 13.15 9.37-.035 5.275-3.202 9.067-10.652 9.067-10.354 0-14.207-5.897-14.207-12.81a2.25 2.25 0 00-2.25-2.25 2.257 2.257 0 00-2.25 2.25c-.028 3.134-.155 6.219.265 9.578.37 2.954 2.257 4.732 4.196 6.095 2.952 2.077 8.004 3.829 14.011 3.829 10.846 0 19.213-7.33 19.213-16.157 0-10.37-7.099-14.498-15.7-16.703-5.05-1.295-14.796-3.658-14.796-9.416 0-5.863 4.585-7.398 7.178-7.398 6.592 0 11.655 3.01 12.816 9.023a2.5 2.5 0 004.91-.947l-2.408-12.463c-.228-1.179-1.265-2.132-2.693-2.004zm-160.33 5.895c10.468-.07 17.88 9.938 17.88 22.197 0 12.259-7.54 21.928-17.788 21.928-10.248 0-17.137-9.716-17.137-21.928 0-12.213 6.576-22.127 17.045-22.197zm44.55 0c10.47-.07 17.883 9.938 17.883 22.197 0 12.259-7.539 21.928-17.789 21.928-10.247 0-17.136-9.716-17.136-21.928 0-12.213 6.575-22.127 17.043-22.197zm-121.603 3.289h11.7c8.148 0 21.831 4.254 21.831 19.455 0 12.73-11.856 20.884-21.832 20.884h-5.199a6.5 6.5 0 01-6.5-6.5v-33.84z" color="#000" font-weight="400" font-family="sans-serif" overflow="visible" fill="#bedbbb"/></svg>