<svg height="100" width="100" xml:space="preserve" xmlns="http://www.w3.org/2000/svg"><path fill-rule="evenodd" clip-rule="evenodd" d="M81.616 80H39.908c-1.87 0-3.384-1.468-3.384-3.93 0-2.463 1.515-3.93 3.384-3.93h41.708c1.87 0 3.384 1.467 3.384 3.93 0 2.462-1.515 3.93-3.384 3.93Zm0-26.07H39.908c-1.87 0-3.384-1.467-3.384-3.93s1.515-3.93 3.384-3.93h41.708C83.486 46.07 85 47.537 85 50s-1.515 3.93-3.384 3.93zm0-26.07H39.908c-1.87 0-3.384-1.467-3.384-3.93 0-2.462 1.515-3.93 3.384-3.93h41.708C83.056 20 85 21.261 85 23.827s-1.515 4.033-3.384 4.033zM25.112 80h-6.73C16.515 80 15 78.532 15 76.07c0-2.463 1.515-3.93 3.382-3.93h6.73c1.87 0 3.384 1.467 3.384 3.93 0 2.462-1.515 3.93-3.384 3.93Zm0-26.07h-6.73C16.515 53.93 15 52.463 15 50s1.515-3.93 3.382-3.93h6.73c1.87 0 3.384 1.467 3.384 3.93s-1.515 3.93-3.384 3.93zm.002-26.07h-6.732c-1.867 0-3.382-1.467-3.382-3.93 0-2.462 1.515-3.93 3.382-3.93h6.732c1.867 0 3.382 1.468 3.382 3.93 0 2.463-1.515 3.93-3.382 3.93z"/></svg>